<?xml version="1.0" standalone="no"?>
<!DOCTYPE svg PUBLIC "-//W3C//DTD SVG 1.1//EN" "http://www.w3.org/Graphics/SVG/1.1/DTD/svg11.dtd" >
<svg xmlns="http://www.w3.org/2000/svg">
<metadata>Generated by IcoMoon</metadata>
<defs>
<font id="newshore-icons" horiz-adv-x="1024">
<font-face units-per-em="1024" ascent="960" descent="-64" />
<missing-glyph horiz-adv-x="1024" />
<glyph unicode="&#x20;" horiz-adv-x="512" d="" />
<glyph unicode="&#xe900;" glyph-name="arrow-double-left" d="M106.667 448l297.6 357.333h176.533l-297.6-357.333 297.6-357.333h-176.533l-297.6 357.333zM740.8 805.333h176.533l-297.6-357.333 297.6-357.333h-176.533l-298.133 357.333 298.133 357.333z" />
<glyph unicode="&#xe901;" glyph-name="arrow-double-right" d="M917.333 448l-297.6 357.333h-177.067l298.133-357.333-297.6-357.333h176.533l297.6 357.333zM283.2 805.333h-176.533l297.6-357.333-297.6-357.333h176.533l298.133 357.333-298.133 357.333z" />
<glyph unicode="&#xe902;" glyph-name="download" d="M995.613 223.932c14.371 0 26.248-10.679 28.128-24.534l0.259-3.852v-227.095c0-14.371-10.679-26.248-24.534-28.128l-3.852-0.259h-967.226c-14.371 0-26.248 10.679-28.128 24.534l-0.259 3.852v227.095c0 15.678 12.709 28.387 28.387 28.387 14.371 0 26.248-10.679 28.128-24.534l0.259-3.852-0.021-198.672h910.46l0.014 198.672c0 14.371 10.679 26.248 24.534 28.128l3.852 0.259zM512 955.932c14.371 0 26.248-10.679 28.128-24.534l0.259-3.852-0.015-727.724 318.103 308.42c11.255 10.914 29.227 10.638 40.14-0.617 9.922-10.231 10.595-26.014 2.18-36.999l-2.797-3.141-366.948-355.816c-0.706-0.639-1.444-1.243-2.211-1.81l2.924 2.477c-1.377-1.334-2.854-2.503-4.408-3.503-0.678-0.436-1.4-0.859-2.142-1.249-0.419-0.221-0.813-0.416-1.21-0.601-0.858-0.402-1.766-0.771-2.697-1.094-0.428-0.145-0.847-0.28-1.268-0.403-1.053-0.313-2.143-0.567-3.255-0.756-0.209-0.033-0.401-0.064-0.593-0.092-1.358-0.203-2.761-0.309-4.189-0.309s-2.83 0.105-4.202 0.309c-0.179 0.028-0.37 0.059-0.562 0.092-1.13 0.189-2.22 0.442-3.285 0.757-0.41 0.123-0.829 0.258-1.245 0.401-0.951 0.328-1.869 0.701-2.761 1.121-0.316 0.148-0.646 0.31-0.973 0.479-0.873 0.453-1.709 0.943-2.517 1.473-0.242 0.157-0.488 0.324-0.732 0.494l-0.518 0.374c-0.783 0.576-1.535 1.19-2.254 1.842l-0.712 0.668-366.235 355.147c-11.255 10.914-11.531 28.886-0.617 40.14 9.922 10.231 25.676 11.39 36.915 3.317l3.225-2.699 318.071-308.496 0.015 727.8c0 15.678 12.709 28.387 28.387 28.387z" />
<glyph unicode="&#xe903;" glyph-name="social-linkedin-circle" d="M638.8 587.6v0 0zM512 960c-282.8 0-512-229.2-512-512s229.2-512 512-512 512 229.2 512 512-229.2 512-512 512zM372.4 238.5h-104.8v349.1h104.7v-349.1zM319.7 622.5h-0.6c-31.2 0-51.5 23.1-51.5 52.3 0 29.8 20.8 52.4 52.7 52.4v0c31.8 0 51.4-22.6 52-52.3 0.1-29.2-20.1-52.4-52.6-52.4zM756.4 238.5h-105.1v179c0 46.8-16.4 78.8-52.6 78.8-27.6 0-43-21.5-50.2-42.4-2.1-5.9-2.3-13.8-2.3-22v-193.3h-104v6.3c0.2 44.6 1.2 313.1 0 339.5h104.1v-54.4c6.2 23.7 39.4 57.6 92.5 57.6 65.9 0 117.6-49.8 117.6-156.8v-192.3z" />
<glyph unicode="&#xe904;" glyph-name="arrow-triangle-left" d="M767.999 959.998l-511.999-511.999 511.999-511.999v1024z" />
<glyph unicode="&#xe905;" glyph-name="arrow-triangle-right" d="M256.001-63.998l511.999 511.999-511.999 511.999v-1024z" />
<glyph unicode="&#xe906;" glyph-name="arrow-triangle-down" d="M0 704l512-512 512 512z" />
<glyph unicode="&#xe907;" glyph-name="arrow-triangle-up" d="M0 192l512 512 512-512z" />
<glyph unicode="&#xe908;" glyph-name="arrow-single-left" d="M766.161-20.976c9.752-10.058 9.506-26.116-0.552-35.868-9.142-8.866-23.246-9.468-33.061-1.948l-2.807 2.5-471.902 486.634c-8.587 8.855-9.446 22.409-2.576 32.203l2.576 3.114 471.902 486.634c9.752 10.058 25.812 10.304 35.868 0.552 9.142-8.866 10.178-22.943 2.964-32.986l-2.412-2.882-454.753-468.975 454.753-468.975z" />
<glyph unicode="&#xe909;" glyph-name="arrow-single-right" d="M257.839 916.976c-9.752 10.058-9.506 26.116 0.552 35.868 9.142 8.866 23.246 9.468 33.061 1.948l2.807-2.5 471.902-486.634c8.587-8.855 9.446-22.409 2.576-32.203l-2.576-3.114-471.902-486.634c-9.752-10.058-25.812-10.304-35.868-0.552-9.142 8.866-10.178 22.943-2.964 32.986l2.412 2.882 454.753 468.975-454.753 468.975z" />
<glyph unicode="&#xe90a;" glyph-name="arrow-single-down" d="M980.976 702.161c10.058 9.752 26.116 9.506 35.868-0.552 8.866-9.142 9.468-23.246 1.948-33.061l-2.5-2.807-486.634-471.902c-8.855-8.587-22.409-9.446-32.203-2.576l-3.114 2.576-486.634 471.902c-10.058 9.752-10.304 25.812-0.552 35.868 8.866 9.142 22.943 10.178 32.986 2.964l2.882-2.412 468.975-454.753 468.975 454.753z" />
<glyph unicode="&#xe90b;" glyph-name="arrow-single-up" d="M43.024 193.839c-10.058-9.752-26.116-9.506-35.868 0.552-8.866 9.142-9.468 23.246-1.948 33.061l2.5 2.807 486.634 471.902c8.855 8.587 22.409 9.446 32.203 2.576l3.114-2.576 486.634-471.902c10.058-9.752 10.304-25.812 0.552-35.868-8.866-9.142-22.943-10.178-32.986-2.964l-2.882 2.412-468.975 454.753-468.975-454.753z" />
<glyph unicode="&#xe90c;" glyph-name="arrow-right" d="M630.779 53.037v237.558h-630.779v315.39h630.779v236.978l393.221-394.963-393.221-394.963z" />
<glyph unicode="&#xe90d;" glyph-name="arrow-thin-right" d="M543.595 953.258l2.799-2.492 470.472-485.16c1.141-1.177 2.146-2.437 3.014-3.761l1.832-3.317 1.070-2.752 0.673-2.525c0.727-3.464 0.727-7.035 0.001-10.483l-0.89-3.181-1.468-3.363-1.995-3.183-2.236-2.644-470.472-485.16c-9.723-10.027-25.734-10.273-35.76-0.55-9.115 8.84-10.147 22.874-2.955 32.886l2.405 2.873 428.888 442.283-913.684-0.018c-13.967 0-25.289 11.322-25.289 25.289 0 12.803 9.514 23.384 21.857 25.058l3.432 0.231 913.684 0.018-428.888 442.247c-8.84 9.115-9.439 23.175-1.942 32.961l2.492 2.799c8.102 7.857 20.112 9.204 29.553 4.141l3.408-2.199z" />
<glyph unicode="&#xe90e;" glyph-name="minus-circle-outline" d="M512 960c282.77 0 512-229.23 512-512s-229.23-512-512-512c-282.77 0-512 229.23-512 512s229.23 512 512 512zM512 911.238c-255.839 0-463.238-207.399-463.238-463.238s207.399-463.238 463.238-463.238c255.839 0 463.238 207.399 463.238 463.238s-207.399 463.238-463.238 463.238zM753.075 475.817c15.362 0 27.817-12.454 27.817-27.817 0-14.082-10.465-25.721-24.042-27.563l-3.775-0.254h-482.149c-15.362 0-27.817 12.454-27.817 27.817 0 14.082 10.465 25.721 24.042 27.563l3.775 0.254h482.149z" />
<glyph unicode="&#xe90f;" glyph-name="plus-circle-outline" d="M512 960c282.77 0 512-229.23 512-512s-229.23-512-512-512c-282.77 0-512 229.23-512 512s229.23 512 512 512zM512 911.238c-255.839 0-463.238-207.399-463.238-463.238s207.399-463.238 463.238-463.238c255.839 0 463.238 207.399 463.238 463.238s-207.399 463.238-463.238 463.238zM512 716.89c14.082 0 25.721-10.465 27.563-24.042l0.254-3.775-0.022-213.248 213.281-0.010c15.362 0 27.817-12.454 27.817-27.817 0-14.082-10.465-25.721-24.042-27.563l-3.775-0.254-213.281 0.022 0.022-213.281c0-15.362-12.454-27.817-27.817-27.817-14.082 0-25.721 10.465-27.563 24.042l-0.254 3.775-0.010 213.281-213.248-0.022c-15.362 0-27.817 12.454-27.817 27.817 0 14.082 10.465 25.721 24.042 27.563l3.775 0.254 213.248 0.010 0.010 213.248c0 15.362 12.454 27.817 27.817 27.817z" />
<glyph unicode="&#xe910;" glyph-name="check-circle-outline" d="M512 960c282.77 0 512-229.23 512-512s-229.23-512-512-512c-282.77 0-512 229.23-512 512s229.23 512 512 512zM512 911.238c-255.839 0-463.238-207.399-463.238-463.238s207.399-463.238 463.238-463.238c255.839 0 463.238 207.399 463.238 463.238s-207.399 463.238-463.238 463.238zM809.445 617.431c8.334-8.966 8.626-22.531 1.2-31.81l-2.458-2.646-375.449-348.986c-8.845-8.221-22.193-8.631-31.48-1.459l-2.655 2.379-166.514 172.397c-9.354 9.685-9.087 25.121 0.598 34.475 8.805 8.504 22.361 9.055 31.782 1.809l2.693-2.408 149.885-155.169 357.943 332.677c9.862 9.167 25.289 8.603 34.457-1.259z" />
<glyph unicode="&#xe911;" glyph-name="minus-circle-filled" d="M511.994 959.994c-282.754 0-511.994-229.205-511.994-511.994s229.205-511.994 511.994-511.994c282.789 0 511.994 229.205 511.994 511.994 1.955 283.103-228.891 511.994-511.994 511.994zM770.873 465.633c16.496 0 29.87-13.373 29.87-29.87 0-15.122-11.237-27.62-25.817-29.598l-4.054-0.273h-517.744c-16.496 0-29.87 13.373-29.87 29.87 0 15.122 11.237 27.62 25.817 29.598l4.054 0.273h517.744z" />
<glyph unicode="&#xe912;" glyph-name="plus-circle-filled" d="M511.994 959.994c-282.754 0-511.994-229.205-511.994-511.994s229.205-511.994 511.994-511.994c282.789 0 511.994 229.205 511.994 511.994 1.955 283.103-228.891 511.994-511.994 511.994zM512.001 724.504c15.122 0 27.62-11.237 29.598-25.817l0.273-4.054-0.008-228.972 229.010-0.031c16.496 0 29.87-13.373 29.87-29.87 0-15.122-11.237-27.62-25.817-29.598l-4.054-0.273-229.010 0.008 0.008-229.010c0-16.496-13.373-29.87-29.87-29.87-15.122 0-27.62 11.237-29.598 25.817l-0.273 4.054-0.031 229.010-228.972-0.008c-16.496 0-29.87 13.373-29.87 29.87 0 15.122 11.237 27.62 25.817 29.598l4.054 0.273 228.972 0.031 0.031 228.972c0 16.496 13.373 29.87 29.87 29.87z" />
<glyph unicode="&#xe913;" glyph-name="cross-circle-filled" d="M511.994 959.994c-282.754 0-511.994-229.205-511.994-511.994s229.205-511.994 511.994-511.994c282.789 0 511.994 229.205 511.994 511.994 1.955 283.103-228.891 511.994-511.994 511.994zM716.173 639.934c10.693-10.693 11.584-27.476 2.674-39.183l-2.674-3.059-161.914-161.903 161.914-161.956c11.665-11.665 11.665-30.577 0-42.243-10.693-10.693-27.476-11.584-39.183-2.674l-3.059 2.674-161.929 161.94-161.929-161.94c-11.665-11.665-30.577-11.665-42.243 0-10.693 10.693-11.584 27.476-2.674 39.183l2.674 3.059 161.914 161.956-161.914 161.903c-11.665 11.665-11.665 30.577 0 42.243 10.693 10.693 27.476 11.584 39.183 2.674l3.059-2.674 161.929-161.886 161.929 161.886c11.665 11.665 30.577 11.665 42.243 0z" />
<glyph unicode="&#xe914;" glyph-name="check-circle-filled" d="M511.994 959.994c-282.754 0-511.994-229.205-511.994-511.994s229.205-511.994 511.994-511.994c282.789 0 511.994 229.205 511.994 511.994 1.955 283.103-228.891 511.994-511.994 511.994zM794.404 631.291c10.59 9.844 27.156 9.239 37.001-1.352 8.95-9.628 9.263-24.194 1.288-34.158l-2.64-2.842-403.167-374.75c-9.498-8.828-23.831-9.268-33.804-1.566l-2.852 2.555-178.807 185.124c-10.045 10.4-9.758 26.975 0.643 37.020 9.455 9.132 24.012 9.724 34.128 1.943l2.892-2.585 160.95-166.624 384.368 357.237z" />
<glyph unicode="&#xe915;" glyph-name="error-circle-filled" d="M512 960c-282.8 0-512-229.2-512-512s229.2-512 512-512 512 229.2 512 512-229.2 512-512 512zM454.4 683c-3.4 34.2 23.5 63.7 57.6 63.7s61.1-29.5 57.6-63.7l-34.2-341.8c-1.2-12-11.3-21.2-23.5-21.2-12.1 0-22.2 9.2-23.5 21.2l-34 341.8zM512 138.7c-29.4 0-53.3 23.9-53.3 53.3s23.9 53.3 53.3 53.3c29.4 0 53.3-23.9 53.3-53.3s-23.9-53.3-53.3-53.3z" />
<glyph unicode="&#xe916;" glyph-name="info-circle-filled" d="M874.008 809.704v0c-146.102 146.601-366.006 190.805-557.409 111.102-62.2-25.6-118.701-63.399-165.801-111.102-200.204-199.602-200.798-524.208-0.602-723.81s524.208-200.101 723.81 0 199.505 523.611 0 723.81v0zM493.299 649.604c-0.098 8.602 1.506 17.101 4.8 24.998s8.098 14.899 14.306 20.8c5.901 5.999 13.001 10.799 20.8 14.2 15.501 6.306 32.901 6.306 48.402 0 7.702-3.298 14.601-8.201 20.399-14.2 5.999-5.901 10.799-13.001 13.999-20.8 3.2-8 4.706-16.499 4.706-24.998 0.098-8.402-1.506-16.802-4.706-24.602s-8-15.002-13.901-21.001c-5.798-6.102-12.8-11-20.502-14.4-7.702-3.2-15.906-4.8-24.201-4.8-8.499-0.098-16.901 1.506-24.7 4.8s-14.802 8.098-20.706 14.306c-5.999 5.999-10.799 13.099-13.999 20.898-3.2 7.906-4.8 16.299-4.706 24.802zM517.798 270.896l-1.302-5.001-0.998-3.9-0.401-2.701v-2.099c0-1.698 0.201-3.401 0.7-5.098v0c0.401-1.199 0.998-2.3 1.801-3.2 0.802-0.802 1.698-1.506 2.799-1.801 1.399-0.499 2.902-0.7 4.399-0.7 4.301 0.499 8.298 2.202 11.602 5.001 6.199 4.8 11.9 10.3 16.998 16.299 7.3 8.298 14.102 16.998 20.399 26.099 7.1 10.002 14.4 21.5 22.102 34.3 0.802 1.399 2.598 1.801 4.002 0.998l26.002-19.298c1.302-0.9 1.6-2.701 0.7-4.002-10.799-19-22.899-37.202-36.302-54.401-11-14.306-23.599-27.298-37.5-38.699v0c-11.699-9.698-24.901-17.506-39.003-23.1-13.099-5.201-27-7.906-41.102-7.906-10.902-0.201-21.798 1.302-32.299 4.399-8.802 2.598-16.901 7.1-23.8 13.202-6.498 5.901-11.602 13.299-14.699 21.602-3.401 9.199-5.001 18.902-4.8 28.702 0 3.601 0 7.3 0.602 11.298s1.101 7.906 2.001 12.502v0c0.802 4.301 2.001 9.101 3.401 14.4s3.2 11.298 5.299 17.899l45.202 141.302 3.699 13.202c0.998 3.699 1.698 7.002 2.402 9.801 0.499 2.402 0.9 4.706 1.199 7.1 0.298 2.001 0.499 4.1 0.499 6.102 0 2.999-0.499 5.901-1.6 8.602v0c-1.101 2.402-2.598 4.599-4.502 6.4-2.202 1.898-4.706 3.401-7.398 4.399-3.298 0.998-6.698 1.506-10.099 1.506h-36.801c-1.6 0-2.902 1.302-2.902 2.902v0.998l9.698 35.102c0.401 1.302 1.506 2.202 2.902 2.099l187.301 5.798c1.6 0 2.902-1.302 2.999-2.902v-0.998l-83.202-276.106v-0.098z" />
<glyph unicode="&#xe917;" glyph-name="alert" d="M597.519 846.439l3.38-5.309 408.028-679.451c9.875-16.251 15.098-34.904 15.072-53.879-0.050-55.115-43.176-100.135-97.485-103.24l-6.079-0.171h-815.92c-19.336-0.173-38.322 5.046-54.81 15.089-47.001 28.615-63.096 88.721-37.775 136.616l3.107 5.469 408.048 679.483c7.561 12.698 17.745 23.62 29.826 32.025l6.196 3.989 5.514 3.058c46.407 23.943 103.593 9.429 132.9-33.681zM485.432 832.769c-5.934-3.527-11.106-8.219-15.232-13.81l-2.894-4.357-408.174-679.691c-14.915-24.519-7.138-56.504 17.371-71.425 6.616-4.030 14.043-6.514 21.853-7.302l5.922-0.271h816.178c28.701-0.021 51.991 23.229 52.017 51.943 0.011 7.611-1.667 15.132-4.919 22.082l-2.731 5.097-408.149 679.652c-14.674 24.652-46.567 32.748-71.243 18.081zM512.010 232.213c19.947 0 36.098-16.152 36.098-36.079s-16.152-36.098-36.098-36.098c-19.928 0-36.098 16.172-36.098 36.098s16.172 36.079 36.098 36.079zM512.019 628.68c13.042 0 23.822-9.692 25.528-22.267l0.235-3.496v-288.788c0-14.229-11.534-25.763-25.763-25.763-13.042 0-23.822 9.692-25.528 22.267l-0.235 3.496v288.788c0 14.229 11.534 25.763 25.763 25.763z" />
<glyph unicode="&#xe918;" glyph-name="minus" d="M998 422h-972c-14.4 0-26 11.6-26 26v0c0 14.4 11.6 26 26 26h972c14.4 0 26-11.6 26-26v0c0-14.4-11.7-26-26-26z" />
<glyph unicode="&#xe919;" glyph-name="plus" d="M512 960c13.18 0 24.073-9.794 25.796-22.501l0.238-3.533v-459.932l459.949-0.331c14.378-0.010 26.017-11.673 26.017-26.051 0-13.18-9.81-24.066-22.519-25.781l-3.533-0.235-459.914 0.331v-459.932c0-14.378-11.656-26.034-26.034-26.034-13.18 0-24.073 9.794-25.796 22.501l-0.238 3.533v459.966l-459.949 0.296c-14.378 0.010-26.017 11.674-26.017 26.051 0 13.18 9.81 24.066 22.519 25.781l3.533 0.235 459.914-0.296v459.897c0 14.378 11.656 26.034 26.034 26.034z" />
<glyph unicode="&#xe91a;" glyph-name="save-pwa-ios" d="M221.784-63.999c-42.254 0-76.677 34.422-76.677 76.677v580.431c0 42.254 34.422 76.677 76.677 76.677h149.23v-44.522h-149.23c-17.726 0-32.155-14.428-32.155-32.155v-580.431c0-17.726 14.428-32.155 32.155-32.155h580.431c17.726 0 32.155 14.428 32.155 32.155v580.431c0 17.726-14.428 32.155-32.155 32.155h-149.23v44.522h149.23c42.254 0 76.677-34.422 76.677-76.677v-580.431c0-42.254-34.422-76.677-76.677-76.677h-580.431zM511.999 298.77c-12.264 0-22.26 9.997-22.26 22.26v562.911l-106.976-107.182c-4.329-4.225-9.893-6.493-15.768-6.493-5.977 0-11.646 2.37-15.768 6.699-4.122 4.122-6.493 9.688-6.493 15.665s2.268 11.543 6.493 15.665l145.211 145.211c4.225 4.225 9.791 6.493 15.665 6.493 5.977 0 11.543-2.268 15.665-6.493l145.108-145.108c8.657-8.657 8.657-22.776 0-31.433-4.431-4.122-9.997-6.39-15.872-6.39-6.184 0-11.646 2.164-15.872 6.39l-106.873 106.976v-562.911c0-12.264-9.997-22.26-22.26-22.26z" />
<glyph unicode="&#xe91b;" glyph-name="cross" d="M1009.699 951.921c10.003-9.88 11.004-25.432 2.938-36.445l-2.692-3.157-458.602-464.306 461.294-467.488c8.066-11.014 7.065-26.565-2.938-36.445-11.004-10.868-28.734-10.758-39.602 0.246v0l-458.108 463.847-458.085-463.847c-10.868-11.004-28.599-11.114-39.602-0.246-10.003 9.88-11.004 25.432-2.938 36.445l2.692 3.157 458.543 464.33-461.235 467.463c-8.066 11.014-7.065 26.565 2.938 36.445 11.004 10.868 28.734 10.758 39.602-0.246v0l458.085-463.785 458.108 463.785c10.868 11.004 28.599 11.114 39.602 0.246z" />
<glyph unicode="&#xe91c;" glyph-name="social-VK-circle" d="M512 960c282.757 0 512-229.243 512-512s-229.243-512-512-512c-282.757 0-512 229.243-512 512s229.243 512 512 512zM421.576 624.957c-10.756-5.117-19.054-16.55-13.983-17.209 6.239-0.808 20.376-3.711 27.874-13.647 9.681-12.839 9.342-41.629 9.342-41.629s0.046-0.656 0.116-1.856l0.257-5.121c0.852-19.587 1.814-74.182-13.373-82.237-12.723-6.763-30.179 7.033-67.704 70.15-19.208 32.322-33.714 68.055-33.714 68.055s-2.797 6.674-7.806 10.265c-6.054 4.34-14.505 5.687-14.505 5.687l-89.77-0.568c0 0-13.492-0.359-18.439-6.075-4.395-5.057-0.338-15.563-0.338-15.563s70.286-160.143 149.883-240.857c62.256-63.101 131.689-68.854 150.765-69.181l4.239 0.015c0.277 0.009 0.488 0.016 0.628 0.023l37.768 0.011c0 0 11.341 1.227 17.149 7.302 5.317 5.567 5.133 16.071 5.133 16.071s-0.707 49.052 22.681 56.294c23.049 7.122 52.645-47.435 84.054-68.415 23.726-15.861 41.735-12.39 41.735-12.39l83.93 1.138c0 0 43.886 2.633 23.080 36.242-1.721 2.753-12.139 24.87-62.388 70.3-52.645 47.555-45.576 39.863 17.795 122.134 38.6 50.099 54.028 80.685 49.203 93.763-4.58 12.51-32.976 9.187-32.976 9.187l-94.472-0.568c0 0-7.007 0.927-12.2-2.094-5.070-2.963-8.359-9.876-8.359-9.876s-14.936-38.756-34.881-71.737c-42.073-69.552-58.884-73.233-65.767-68.923-16.012 10.085-12.016 40.462-12.016 62.040 0 67.426 10.511 95.529-20.438 102.802-10.265 2.424-17.825 4.010-44.101 4.28-33.714 0.329-62.234-0.12-78.399-7.811z" />
<glyph unicode="&#xe91d;" glyph-name="check" d="M976.267 776.514c11.49 10.677 29.459 10.018 40.137-1.471 9.707-10.445 10.044-26.247 1.393-37.054l-2.865-3.083-662.256-615.419c-10.092-9.378-25.237-10.040-36.037-2.169l-3.426 2.939-304.943 306.402c-11.064 11.118-11.022 29.1 0.096 40.164 10.107 10.058 25.887 10.938 36.986 2.661l3.178-2.757 285.569-286.941 642.166 596.727z" />
<glyph unicode="&#xe91e;" glyph-name="hotel" d="M962.803 959.999l3.673-0.311c13.209-2.26 23.39-16.542 23.39-33.822 0-18.851-12.116-34.133-27.061-34.133v0h-7.106v-443.732h41.239l3.673-0.311c13.209-2.26 23.39-16.542 23.39-33.822 0-18.851-12.116-34.133-27.061-34.133v0h-41.239l0.034-415.661c0-14.31-10.449-26.12-23.955-27.853l-3.436-0.219h-798.55c-15.127 0-27.391 12.567-27.391 28.071v0l-0.034 415.661h-41.171l-3.673 0.311c-13.209 2.26-23.39 16.542-23.39 33.822 0 18.851 12.116 34.133 27.061 34.133v0h41.171v443.732h-75.304l-3.673 0.311c-13.209 2.26-23.39 16.542-23.39 33.822 0 18.851 12.116 34.133 27.061 34.133v0h935.741zM900.913 379.733h-743.764l0.014-387.577 252.436 0.028v218.746c0 17.822 12.589 32.27 28.117 32.27h216.832c15.528 0 28.117-14.448 28.117-32.27v-218.746l218.272-0.028-0.023 387.577zM626.461 178.665h-160.619v-178.109h160.619v178.109zM900.913 891.732h-743.764v-443.732h743.764v443.732zM314.172 618.666c15.001 0 27.16-12.512 27.16-27.947v-46.507c0-15.435-12.16-27.947-27.16-27.947h-48.080c-15.001 0-27.16 12.512-27.16 27.947v46.507c0 15.435 12.16 27.947 27.16 27.947h48.080zM792.038 618.666c15.001 0 27.16-12.512 27.16-27.947v-46.507c0-15.435-12.16-27.947-27.16-27.947h-48.080c-15.001 0-27.16 12.512-27.16 27.947v46.507c0 15.435 12.16 27.947 27.16 27.947h48.080zM587.238 618.666c15.001 0 27.16-12.512 27.16-27.947v-46.507c0-15.435-12.16-27.947-27.16-27.947h-48.080c-15.001 0-27.16 12.512-27.16 27.947v46.507c0 15.435 12.16 27.947 27.16 27.947h48.080zM314.172 857.599c15.001 0 27.16-12.512 27.16-27.947v-46.507c0-15.435-12.16-27.947-27.16-27.947h-48.080c-15.001 0-27.16 12.512-27.16 27.947v46.507c0 15.435 12.16 27.947 27.16 27.947h48.080zM587.238 857.599c15.001 0 27.16-12.512 27.16-27.947v-46.507c0-15.435-12.16-27.947-27.16-27.947h-48.080c-15.001 0-27.16 12.512-27.16 27.947v46.507c0 15.435 12.16 27.947 27.16 27.947h48.080zM792.038 857.599c15.001 0 27.16-12.512 27.16-27.947v-46.507c0-15.435-12.16-27.947-27.16-27.947h-48.080c-15.001 0-27.16 12.512-27.16 27.947v46.507c0 15.435 12.16 27.947 27.16 27.947h48.080z" />
<glyph unicode="&#xe91f;" glyph-name="info" d="M487.611 710.895c-0.1 11.2 2 22.3 6.3 32.7 4.3 10.2 10.6 19.5 18.6 27.2 7.8 7.8 17 14.1 27.1 18.5 20.2 8.3 42.9 8.3 63.2 0 10-4.4 19.1-10.6 26.7-18.5 7.9-7.7 14.1-17 18.3-27.2 4.1-10.4 6.2-21.5 6.1-32.7 0.1-11-2-21.9-6.1-32-4.2-10.2-10.4-19.5-18.2-27.4-7.6-8-16.7-14.4-26.8-18.8-10-4.2-20.7-6.3-31.5-6.2-11.1-0.1-22 2-32.2 6.2-10.2 4.3-19.3 10.6-27 18.6-7.8 7.8-14.1 17.1-18.3 27.3s-6.3 21.2-6.2 32.3zM519.511 216.895l-1.8-6.5-1.2-5.1-0.5-3.5v-2.8c-0.1-2.2 0.3-4.5 0.9-6.6v0c0.5-1.6 1.3-3 2.4-4.2 1-1.1 2.2-1.9 3.6-2.4 1.8-0.7 3.7-1 5.7-0.9 5.6 0.6 10.8 2.9 15.1 6.5 8.1 6.3 15.6 13.5 22.2 21.3 9.5 10.8 18.4 22.2 26.6 34.1 9.2 13 18.8 28 28.8 44.8 1.1 1.8 3.4 2.4 5.2 1.3l33.9-25.2c1.7-1.2 2.1-3.5 0.9-5.2-14-24.8-29.9-48.5-47.3-71-14.4-18.6-30.7-35.6-48.9-50.5v0c-15.3-12.6-32.4-22.8-50.9-30.2-17.1-6.8-35.3-10.3-53.6-10.3-14.2-0.2-28.4 1.7-42.1 5.7-11.5 3.4-22 9.2-31 17.2-8.5 7.7-15.1 17.4-19.2 28.1-4.4 12-6.5 24.7-6.3 37.4 0 4.7 0 9.5 0.8 14.7s1.4 10.3 2.6 16.3v0c1 5.6 2.6 11.9 4.4 18.8 1.9 6.9 4.2 14.8 6.9 23.4l58.9 184.3 4.9 17.3c1.2 4.9 2.3 9.1 3.1 12.8 0.7 3.1 1.2 6.2 1.6 9.3 0.4 2.6 0.6 5.3 0.6 8 0 3.9-0.7 7.7-2.1 11.3v0c-1.4 3.2-3.4 6-5.9 8.4-2.8 2.5-6.1 4.5-9.7 5.7-4.3 1.3-8.7 2-13.2 2h-48c-2.1 0-3.8 1.6-3.8 3.7v1l12.6 45.8c0.5 1.7 2 2.8 3.7 2.8l244.6 7.8c2.1 0 3.8-1.6 3.9-3.7v-1.2l-108.4-360.3v-0.2z" />
<glyph unicode="&#xe920;" glyph-name="airplane-left-circle" d="M511.995 959.995c-282.761 0-511.995-229.234-511.995-511.995s229.234-511.995 511.995-511.995 511.995 229.234 511.995 511.995c1.745 283.343-228.653 511.995-511.995 511.995zM862.828 328.146c-44.8-0.581-48.291-2.327-53.527 5.236l-41.309 63.417c-2.909 4.655-10.473 21.527-15.709 20.364-43.636-11.637-154.18-24.436-185.598-28.508-1.745 0-4.072-1.164-4.655-2.909-1.164-1.745-1.164-4.072-0.581-5.818l104.145-269.962c0.581-1.745 0.581-4.072-0.581-5.818s-2.909-2.909-5.236-2.909h-41.891c-18.036 0-34.327 9.309-44.217 23.855l-165.235 247.852c-2.327 3.491-6.4 5.818-11.054 5.818h-121.017c-34.909-0.581-127.417 25.018-127.999 64.581 0 0.581 0 2.909 0 4.655v4.655c0.581 39.564 92.508 65.163 127.999 64.581h121.599c4.655 0 8.727 2.327 11.054 5.818l164.071 247.852c9.891 15.128 26.763 23.855 44.217 23.855h41.891c2.327 0 4.072-1.164 5.236-2.909s1.745-4.072 0.581-6.4l-104.145-269.379c-0.581-1.745-0.581-4.072 0.581-5.818s2.909-2.909 4.655-2.909c31.418-3.491 141.962-16.873 185.598-28.508 5.236-1.745 12.8 15.128 16.29 19.781l41.309 63.417c5.236 7.563 8.727 5.818 53.527 5.236 7.563 0 13.382-6.4 12.8-13.382 0-1.164 0-2.327-0.581-3.491l-37.236-82.617c-0.581-1.164-0.581-2.327-0.581-3.491v-31.999c0-1.164 0.581-2.327 0.581-3.491l37.236-83.2c1.745-6.982-2.327-14.545-9.309-16.29-0.581-0.581-1.745-1.164-2.909-1.164v0z" />
<glyph unicode="&#xe921;" glyph-name="airplane-right-circle" d="M511.995 959.995c-282.761 0-511.995-229.234-511.995-511.995s229.234-511.995 511.995-511.995 511.995 229.234 511.995 511.995c1.745 283.343-228.653 511.995-511.995 511.995zM875.628 443.345c-0.581-39.564-92.508-65.163-127.999-64.581h-121.599c-4.655 0-8.727-2.327-11.054-5.818l-163.49-247.852c-9.891-15.128-26.182-23.855-44.217-23.855h-41.891c-2.327 0-4.072 1.164-5.236 2.909s-1.745 4.072-0.581 5.818l104.145 269.962c0.581 1.745 0.581 4.072-0.581 5.818s-2.909 2.909-4.655 2.909c-31.418 3.491-141.962 16.873-185.598 28.508-5.236 1.745-12.8-15.128-15.709-20.364l-41.309-63.417c-5.236-7.563-8.727-5.818-53.527-5.236-7.563 0-12.8 6.4-12.8 13.382 0 1.164 0 2.327 0.581 3.491l36.073 83.2c0.581 1.164 0.581 2.327 0.581 3.491v31.999c0 1.164-0.581 2.327-0.581 3.491l-37.236 83.2c-1.745 6.982 2.327 14.545 9.309 16.29 1.164 0 2.327 0.581 3.491 0.581 44.8 0.581 48.291 2.327 53.527-5.236l41.309-63.417c2.909-4.655 10.473-21.527 16.29-19.781 43.636 11.637 154.18 24.436 185.598 28.508 1.745 0 4.072 1.164 4.655 2.909 1.164 1.745 1.164 4.072 0.581 5.818l-104.726 269.962c-0.581 1.745-0.581 4.072 0.581 6.4 1.164 1.745 2.909 2.909 5.236 2.909h41.891c18.036 0 34.327-9.309 44.217-23.855l164.071-247.852c2.327-3.491 6.4-5.818 11.054-5.818h121.599c34.909 0.581 127.417-25.018 127.999-64.581v-5.236c0-1.745 0-4.072 0-4.655z" />
<glyph unicode="&#xe922;" glyph-name="airplane-left" d="M-0.001 437.288c0.465-63.37 50.788-92.906 137.34-105.484l21.292-2.69 21.619-2.089 99.737-6.563 83.64-5.86 80.6-125.566 77.743-120.284 42.392-64.638 20.321-29.887 3.206-4.444 3.41-4.396c0.286-0.337 0.54-0.624 0.764-0.86 15.55-16.395 52.369-24.13 85.518-21.386 43.644 3.613 75.177 25.894 68.010 67.043l-1.183 5.949-2.794 11.712-5.572 20.672-7.603 26.243-15.018 49.31-22.596 71.532-27.965 86.395-16.945 51.531 211.798 25.21-0.944 2.316c5.179-12.931 11.381-25.876 18.688-38.115 33.543-56.185 80.983-81.905 136.464-48.040 7.558 4.613 12.141 12.853 12.080 21.706l-2.282 304.934c-0.081 10.852-7.098 20.434-17.418 23.788l-4.3 1.216-5.945 1.301c-20.96 4.013-43.67 3.171-65.738-6.203l-5.708-2.634c-29.904-14.94-51.187-44.164-61.291-88.175l-0.514-2.416-222.117 16.672 4.023 14.633 8.129 27.765 8.004 25.848 12.639 38.958 11 32.674 16.764 48.301 19.236 53.853 16.102 44.128 11.551 31.235c20.311 62.432-89.271 126.091-155.867 68.149l-1.882-1.983-4.29-4.992-4.988-6.349-5.684-7.691-6.375-9.020-10.851-15.991-12.386-18.902-18.878-29.652-27.357-44.058-31.093-50.989-30.242-50.208-30.951-51.877-43.377-73.43-42.266-3.728-37.649-3.057c-6.461-0.503-13.009-1.002-19.638-1.496l-33.521-2.398-48.23-5.029c-18.004-1.964-33.519-4.086-48.472-6.799-79.537-14.434-129.090-43.31-132.003-99.57l-0.133-6.128zM50.413 437.663c-0.193 26.246 30.334 44.753 90.725 55.712 10.897 1.977 22.292 3.633 35.075 5.162l51.882 5.425 5.762 0.707 11.955 0.787 40.101 2.984 37.984 3.084 55.751 5.038c8.026 0.801 15.184 5.395 19.256 12.357l34.229 58.107 46.345 77.839 53.491 88.39 30.852 49.875 21.749 34.34 11.13 17.144 9.578 14.368 7.934 11.441 4.331 5.929 3.532 4.518 2.706 3.062c15.636 13.504 33.789 14.134 51.733 3.71 7.69-4.467 14.38-10.655 18.501-16.738l1.683-2.543c0.628-0.878 1-1.101 1.404-0.366l-22.058-60.025-19.95-55.492-13.346-38.023-15.7-46.011-13.374-40.775-8.55-27.226-7.259-24.208-7.249-25.83-3.765-14.776-2.494-11.166-1.027-5.584-0.57-4.2c-1.418-14.102 9.062-26.601 23.195-27.663l274.022-20.582c13.474-1.012 25.35 8.778 26.927 22.199 5.287 45.011 20.251 67.737 41.124 76.603l5.026 1.834c5.104 1.572 10.416 2.378 15.736 2.544l2.667-0.036 1.95-267.159-3.199-0.766c-18.601-3.491-34.834 9.276-51.464 37.132-5.825 9.757-10.914 20.378-15.173 31.015l-3.612 9.589-1.333 4.043c-3.538 11.706-14.967 19.185-27.111 17.74l-262.214-31.204c-15.856-1.887-25.986-17.853-20.938-33.003l26.567-80.625 18.795-57.864 28.212-88.696 15.32-49.877 9.582-32.662 5.394-19.728 2.632-10.793 1.051-5.193c0.56-3.213-4.272-6.627-22.499-8.137-10.353-0.857-21.942-0.1-31.856 1.983l-5.895 1.461c-0.863 0.247-1.662 0.489-2.387 0.721l-4.617 1.648-3.106 4.197-22.246 33.18-86.608 133.076-66.729 103.686-50.676 79.082c-4.282 6.697-11.471 10.983-19.398 11.564l-76.54 5.41-121.846 8.115-20.688 2.096c-73.959 8.417-110.182 26.837-110.416 58.057z" />
<glyph unicode="&#xe923;" glyph-name="airplane-right" d="M1024.002 458.711c-0.465 63.37-50.788 92.906-137.34 105.485l-21.292 2.69-21.619 2.089-99.737 6.563-83.64 5.86-80.6 125.566-77.743 120.284-42.392 64.638-20.321 29.887-3.206 4.444-3.41 4.396c-0.286 0.337-0.54 0.624-0.764 0.86-15.55 16.395-52.369 24.13-85.518 21.386-43.644-3.613-75.177-25.894-68.010-67.043l1.183-5.949 2.794-11.712 5.572-20.672 7.603-26.243 15.018-49.31 22.596-71.532 27.965-86.395 16.945-51.531-211.799-25.21 0.944-2.316c-5.179 12.931-11.381 25.876-18.688 38.115-33.543 56.185-80.983 81.905-136.464 48.040-7.558-4.613-12.141-12.853-12.080-21.706l2.282-304.935c0.081-10.852 7.098-20.434 17.418-23.788l4.3-1.216 5.945-1.301c20.96-4.013 43.67-3.171 65.738 6.203l5.708 2.634c29.904 14.94 51.187 44.164 61.291 88.175l0.514 2.416 222.118-16.672-4.023-14.633-8.129-27.765-8.004-25.848-12.639-38.958-11-32.674-16.764-48.301-19.236-53.853-16.102-44.128-11.551-31.235c-20.311-62.432 89.271-126.091 155.868-68.149l1.882 1.983 4.29 4.992 4.988 6.349 5.684 7.691 6.375 9.020 10.851 15.991 12.386 18.902 18.878 29.652 27.357 44.058 31.093 50.989 30.242 50.208 30.951 51.877 43.377 73.43 42.266 3.728 37.649 3.057c6.461 0.503 13.009 1.002 19.638 1.496l33.521 2.398 48.23 5.029c18.004 1.964 33.519 4.086 48.472 6.799 79.537 14.434 129.090 43.31 132.003 99.57l0.133 6.128zM973.588 458.337c0.193-26.246-30.334-44.753-90.725-55.712-10.897-1.977-22.292-3.633-35.075-5.162l-51.882-5.425-5.762-0.707-11.955-0.787-40.101-2.984-37.984-3.084-55.751-5.038c-8.026-0.801-15.184-5.395-19.256-12.357l-34.229-58.107-46.345-77.839-53.491-88.39-30.852-49.875-21.749-34.34-11.13-17.144-9.578-14.368-7.934-11.441-4.331-5.929-3.532-4.518-2.706-3.062c-15.636-13.504-33.789-14.134-51.733-3.71-7.69 4.467-14.38 10.655-18.501 16.738l-1.683 2.543c-0.628 0.878-1 1.101-1.404 0.366l22.058 60.025 19.95 55.492 13.346 38.023 15.7 46.011 13.374 40.775 8.55 27.226 7.259 24.208 7.249 25.83 3.765 14.776 2.494 11.166 1.027 5.584 0.57 4.2c1.418 14.102-9.062 26.601-23.195 27.663l-274.023 20.582c-13.474 1.012-25.35-8.778-26.927-22.199-5.287-45.011-20.251-67.737-41.124-76.603l-5.026-1.834c-5.104-1.572-10.416-2.378-15.736-2.544l-2.667 0.036-1.95 267.16 3.199 0.766c18.601 3.491 34.834-9.276 51.464-37.132 5.825-9.757 10.914-20.378 15.173-31.015l3.612-9.589 1.333-4.043c3.538-11.706 14.967-19.185 27.111-17.74l262.215 31.204c15.856 1.887 25.986 17.853 20.938 33.003l-26.567 80.625-18.795 57.864-28.212 88.696-15.32 49.877-9.582 32.662-5.394 19.728-2.632 10.793-1.051 5.193c-0.56 3.213 4.272 6.627 22.499 8.137 10.353 0.857 21.942 0.1 31.856-1.983l5.895-1.461c0.863-0.247 1.662-0.489 2.387-0.721l4.617-1.648 3.106-4.197 22.246-33.18 86.608-133.076 66.729-103.686 50.676-79.082c4.282-6.697 11.471-10.983 19.398-11.564l76.54-5.41 121.846-8.115 20.688-2.096c73.959-8.417 110.182-26.837 110.416-58.057z" />
<glyph unicode="&#xe924;" glyph-name="social-youtube-circle" d="M513.2 564.626c10.473 0 15.819 8.728 15.819 25.856v77.133c0 17.128-5.237 25.42-15.819 25.42-10.473 0-15.819-8.291-15.819-25.42v-77.133c0-17.128 5.346-25.856 15.819-25.856zM470.215 239.076c-7.419-10.473-14.51-15.383-21.056-15.383-4.364 0-6.982 2.618-7.855 7.855-0.436 4.364-0.436 8.728-0.436 12.655v133.755h-32.839v-143.683c-0.436-9.164 0.436-18.001 3.055-26.729 3.055-9.164 10.037-13.528 21.492-13.528 11.783 0 24.111 7.419 37.639 22.365v-19.747h32.839v181.322h-32.839v-138.883zM627.972 323.191c0 18.001-1.309 30.22-3.491 36.33-4.364 13.528-12.655 20.62-26.293 20.62-12.219 0-23.674-6.546-34.148-19.747v79.751h-32.402v-243.617h32.839v17.565c10.91-13.528 22.365-20.183 34.148-20.183 13.092 0 21.929 6.546 26.293 20.183 2.182 6.546 3.491 18.874 3.491 36.766l-0.436 72.332zM595.57 248.677c0-16.256-4.8-24.547-14.51-24.547-6.546 0-12.219 3.055-16.692 7.855v110.517c4.364 4.8 10.037 7.855 16.692 8.291v0c9.601 0 14.074-8.291 14.51-24.547v-77.569zM289.33 440.145v-34.584h38.512v-209.033h36.875v209.033h39.385v34.584h-0.436zM719.178 259.259c0-7.419 0-14.947-0.873-22.365-1.746-8.728-6.546-13.092-14.947-13.092-11.346 0-17.128 8.291-17.128 25.42v31.857h65.786v37.639c0 19.31-3.491 33.711-10.037 42.548-17.565 21.492-49.094 24.984-70.587 7.419-2.618-2.182-5.237-4.8-7.419-7.419-6.982-9.164-10.037-23.238-10.037-42.548v-63.495c0-19.31 3.491-33.711 10.473-42.548 9.164-12.219 24.111-19.31 39.821-18.874 17.565 0 30.657 6.546 39.821 19.31 3.928 5.673 6.546 12.655 7.855 19.747 0.873 6.982 0.873 14.074 0.873 21.492l-0.436 4.8h-33.166zM686.231 325.809c0 16.692 5.673 24.984 16.692 24.984s16.692-8.291 16.692-24.984v-17.128h-33.275v17.128zM512 960c-282.784 0-512-229.216-512-512s229.216-512 512-512 512 229.216 512 512-229.216 512-512 512zM589.896 575.536v144.992h33.275v-134.955c0-4.364 0-8.728 0.436-12.655 0.873-5.237 3.491-7.855 7.855-7.855 6.546 0 13.528 5.237 21.056 15.819v140.083h32.839v-184.049h-33.275v20.183c-13.092-15.383-25.42-22.802-37.639-22.802-11.346 0-18.438 4.364-21.492 13.528-2.182 9.273-3.491 18.547-3.055 27.711zM464.542 660.961c0 19.747 3.491 33.711 10.037 42.985 17.128 21.492 48.222 24.984 69.714 7.855 2.618-2.182 5.237-4.8 7.419-7.855 6.982-9.164 10.473-23.238 10.473-42.985v-64.368c0-19.747-3.491-34.148-10.037-43.421-17.128-21.492-48.222-24.984-69.714-7.855-3.055 2.182-5.673 4.8-7.855 7.855-6.982 9.164-10.037 23.674-10.037 43.421v64.368zM374.754 783.26l26.293-96.88 25.42 96.88h36.766l-44.294-146.738v-99.498h-36.766v99.498c-5.673 26.293-13.092 52.586-22.365 78.006-9.164 25.42-17.128 48.222-24.111 68.841h39.057zM793.147 314.027c0-57.386-3.055-100.371-9.601-128.846-3.055-14.074-10.473-26.729-21.492-36.33-10.473-9.601-23.674-15.383-37.639-17.128-45.167-5.237-113.026-7.855-204.124-7.855s-159.066 2.618-204.124 7.855c-14.074 1.309-27.166 7.419-37.639 17.128-10.91 9.601-18.001 22.365-21.056 36.33-6.546 27.602-9.601 70.587-9.601 128.846 0 57.386 3.055 100.371 9.601 128.846 3.055 14.074 10.473 26.729 21.492 36.33 10.473 9.601 23.674 15.819 37.639 17.128 44.73 4.8 112.59 7.419 203.687 7.419s159.066-2.618 204.124-7.419c28.911-3.491 52.586-24.984 58.695-53.895 6.982-27.275 10.037-69.714 10.037-128.409v0z" />
<glyph unicode="&#xe925;" glyph-name="social-OK-circle" d="M512 960c282.757 0 512-229.243 512-512s-229.243-512-512-512c-282.757 0-512 229.243-512 512s229.243 512 512 512zM662.779 407.14c-12.061 17.295-37.364 22.502-56.551 11.62-57.339-32.484-131.161-32.477-188.467 0-19.189 10.882-44.499 5.675-56.535-11.62-12.070-17.272-6.315-40.068 12.84-50.95 25.311-14.307 52.791-24.478 81.285-30.327v0l-78.261-70.508-3.183-3.222c-12.733-14.501-11.67-35.628 3.2-49.025 8.016-7.206 18.501-10.813 28.988-10.813 10.503 0 21.006 3.606 29.021 10.813v0l76.871 69.285 76.938-69.285 3.86-3.073c16.072-11.269 39.325-10.244 54.108 3.073 16.031 14.428 16.031 37.835 0 52.247v0l-78.252 70.508 12.146 2.77c24.154 6.065 47.444 15.281 69.138 27.557 19.155 10.882 24.926 33.692 12.856 50.95zM512 703.712c-77.198 0-139.98-62.641-139.98-139.654 0-76.988 62.784-139.612 139.98-139.612 77.214 0 139.98 62.624 139.98 139.612 0 77.013-62.766 139.654-139.98 139.654zM511.644 622.114c31.961 0 57.959-26.028 57.959-58.038 0-31.985-25.998-58.031-57.959-58.031-31.936 0-57.959 26.046-57.959 58.031 0 32.010 26.023 58.038 57.959 58.038z" />
<glyph unicode="&#xe926;" glyph-name="airplane-up" d="M501.285 959.992c-63.37-0.467-92.901-50.784-105.484-137.337l-2.69-21.289-2.086-21.617-6.56-99.739-5.856-83.637-125.563-80.602-120.286-77.739-64.636-42.395-29.886-20.32-4.448-3.207-4.393-3.413c-0.339-0.288-0.622-0.544-0.864-0.763-16.396-15.549-24.13-52.37-21.387-85.518 3.616-43.643 25.89-75.172 67.040-68.006l5.948 1.184 11.712 2.791 20.672 5.572 26.243 7.601 49.312 15.015 71.528 22.596 86.393 27.964 51.532 16.943 25.209-211.798 2.318 0.942c-12.931-5.178-25.878-11.379-38.112-18.688-56.183-33.543-81.901-80.985-48.036-136.464 4.614-7.559 12.851-12.138 21.707-12.077l304.928 2.279c10.848 0.083 20.436 7.097 23.785 17.419l1.216 4.302 1.304 5.944c4.010 20.96 3.168 43.672-6.202 65.738l-2.635 5.71c-14.944 29.906-44.164 51.184-88.171 61.287l-2.414 0.514 16.672 222.111 14.629-4.022 27.763-8.129 25.846-8.004 38.955-12.64 32.671-10.999 48.297-16.763 53.856-19.232 44.128-16.098 31.235-11.552c62.432-20.314 126.090 89.268 68.146 155.869l-1.983 1.886-4.992 4.29-6.351 4.987-7.692 5.682-9.019 6.371-15.989 10.848-18.905 12.384-29.654 18.877-44.061 27.359-50.985 31.091-50.208 30.239-51.872 30.947-73.432 43.374-3.73 42.269-3.055 37.651c-0.502 6.46-0.999 13.011-1.499 19.636l-2.4 33.518-5.025 48.225c-1.961 18.006-4.084 33.516-6.801 48.474-14.432 79.533-43.307 129.088-99.566 132l-6.126 0.134zM501.664 909.582c26.246 0.193 44.755-30.333 55.712-90.719 1.976-10.899 3.631-22.294 5.159-35.075l5.423-51.878 0.707-5.762 0.79-11.953 2.981-40.096 3.086-37.984 5.035-55.751c0.8-8.030 5.398-15.186 12.357-19.254l58.105-34.227 77.84-46.345 88.389-53.488 49.877-30.852 34.336-21.747 17.143-11.129 14.368-9.575 11.439-7.934 5.926-4.328 4.514-3.534 3.061-2.709c13.504-15.639 14.132-33.788 3.71-51.735-4.465-7.691-10.656-14.377-16.736-18.501l-2.541-1.686c-0.875-0.626-1.103-0.997-0.363-1.403l-60.023 22.054-55.491 19.947-38.023 13.344-46.009 15.703-40.775 13.373-27.229 8.546-24.21 7.263-25.826 7.251-14.775 3.763-11.168 2.494-5.586 1.027-4.196 0.569c-14.105 1.419-26.597-9.058-27.665-23.198l-20.578-274.015c-1.010-13.472 8.779-25.35 22.197-26.924 45.013-5.283 67.739-20.254 76.601-41.12l1.831-5.024c1.568-5.102 2.379-10.414 2.542-15.735l-0.032-2.664-267.158-1.952-0.766 3.199c-3.488 18.597 9.275 34.836 37.133 51.464 9.76 5.825 20.381 10.912 31.011 15.173l9.587 3.616 4.044 1.331c11.705 3.541 19.182 14.965 17.741 27.107l-31.199 262.211c-1.888 15.853-17.852 25.986-32.999 20.939l-80.621-26.567-57.864-18.792-88.693-28.21-49.879-15.323-32.664-9.579-19.73-5.396-10.789-2.633-5.194-1.055c-3.215-0.558-6.624 4.27-8.138 22.496-0.861 10.351-0.096 21.94 1.983 31.853l1.459 5.896c0.246 0.864 0.486 1.662 0.723 2.39l1.646 4.618 4.193 3.104 33.183 22.242 133.076 86.609 103.685 66.724 79.077 50.673c6.694 4.281 10.979 11.473 11.561 19.398l5.408 76.538 8.113 121.842 2.094 20.69c8.416 73.954 26.839 110.176 58.057 110.416z" />
<glyph unicode="&#xe927;" glyph-name="social-OK" d="M700.667 389.456c38.42 21.787 89.083 11.362 113.231-23.267 24.166-34.554 12.611-80.227-25.742-102.014-50.679-28.676-105.701-49.013-162.753-60.722v0l156.682-141.175c32.098-28.858 32.098-75.725 0-104.612-32.064-28.888-84.034-28.888-116.064 0v0l-154.049 138.728-153.915-138.728c-16.049-14.428-37.078-21.651-58.108-21.651-20.996 0-41.992 7.221-58.041 21.651-32.064 28.888-32.064 75.725-0.033 104.612v0l156.698 141.175c-57.052 11.709-112.074 32.076-162.753 60.722-38.353 21.787-49.873 67.431-25.708 102.014 24.098 34.629 74.777 45.054 113.197 23.267 114.74-65.027 262.551-65.042 377.357 0zM512.001 960c154.602 0 280.276-125.424 280.276-279.623 0-154.149-125.674-279.539-280.276-279.539-154.569 0-280.276 125.39-280.276 279.539 0 154.2 125.707 279.623 280.276 279.623zM511.289 796.62c-63.944 0-116.049-52.117-116.049-116.208 0-64.042 52.105-116.192 116.049-116.192 63.994 0 116.049 52.15 116.049 116.192 0 64.092-52.055 116.208-116.049 116.208z" />
<glyph unicode="&#xe928;" glyph-name="social-VK" d="M562.219 165.933c0 0 18.482 2 27.947 11.9 8.664 9.072 8.364 26.19 8.364 26.19s-1.152 79.937 36.962 91.74c37.563 11.607 85.794-77.304 136.979-111.493 38.664-25.849 68.014-20.191 68.014-20.191l136.779 1.853c0 0 71.52 4.291 37.614 59.063-2.805 4.486-19.783 40.53-101.671 114.566-85.794 77.499-74.274 64.964 28.999 199.039 62.905 81.645 88.047 131.489 80.184 152.803-7.463 20.386-53.74 14.973-53.74 14.973l-153.958-0.927c0 0-11.419 1.512-19.883-3.414-8.264-4.828-13.622-16.095-13.622-16.095s-24.341-63.159-56.846-116.906c-68.566-113.346-95.961-119.345-107.179-112.323-26.094 16.436-19.583 65.94-19.583 101.105 0 109.883 17.128 155.681-33.306 167.533-16.728 3.951-29.048 6.536-71.871 6.974-54.942 0.537-101.42-0.195-127.765-12.73-17.53-8.34-31.052-26.97-22.788-28.045 10.167-1.317 33.206-6.048 45.426-22.24 15.777-20.924 15.226-67.842 15.226-67.842s9.065-129.344-21.185-145.389c-20.735-11.022-49.183 11.462-110.335 114.321-31.303 52.674-54.942 110.908-54.942 110.908s-4.558 10.877-12.721 16.728c-9.867 7.072-23.64 9.267-23.64 9.267l-146.295-0.927c0 0-21.986-0.585-30.051-9.901-7.162-8.242-0.551-25.362-0.551-25.362s114.542-260.98 244.26-392.518c118.95-120.565 253.976-112.663 253.976-112.663h61.203z" />
<glyph unicode="&#xe929;" glyph-name="airplane-cancel" d="M714.516 548.441l100.822-60.518 47.693-29.162 41.221-25.715 28.035-17.95 18.002-11.864 15.31-10.444 8.666-6.152 7.402-5.487 6.112-4.809 4.795-4.118c0.688-0.628 1.32-1.227 1.895-1.796 58.398-67.12-5.757-177.555-68.989-156.984l-60.902 22.406-68.075 24.397-36.668 12.776-44.154 14.936-29.648 9.674-26.748 8.403-29.87 8.896-19.681 5.469-16.523-219.931 3.017-0.669c43.294-10.234 72.193-31.401 87.119-61.038l2.799-6.040c9.435-22.211 10.28-45.048 6.245-66.127l-1.311-5.989-1.229-4.343c-3.078-9.474-11.239-16.251-20.885-17.7l-3.679-0.287-304.415-2.275c-9.143-0.066-17.652 4.668-22.415 12.471-34.122 55.903-8.196 103.726 48.253 137.427 9.195 5.49 18.786 10.356 28.469 14.633l6.803 2.886-15.379 131.35c-1.699 14.277 8.498 27.229 22.775 28.928s27.229-8.498 28.928-22.775l17.791-151.732c1.493-12.541-6.231-24.342-18.319-27.997l-6.755-2.306-6.783-2.607c-10.579-4.237-21.142-9.298-30.84-15.088-27.117-16.19-39.679-31.843-36.786-49.693l0.695-3.289 265.195 1.979-0.112 4.362c-0.292 4.069-0.977 8.112-2.114 12.033l-2.052 5.779c-8.721 20.532-31.134 35.288-75.776 40.533-12.703 1.493-22.258 11.921-22.956 24.366l0.034 3.439 20.547 273.557c1.097 14.595 14.004 25.417 28.566 23.953l4.217-0.572 8.943-1.728 12.347-2.902 16.049-4.221 20.046-5.684 24.93-7.481 28.519-8.976 42.895-14.117 35.905-12.246 25.749-8.974 41.39-14.702 44.766-16.223 48.203-17.781c-2.076 0.675-2.25 1.047-1.237 1.829l2.322 1.571c5.964 4.041 12.052 10.623 16.447 18.188 10.23 17.61 9.614 35.329-3.562 50.592l-3.134 2.778c-0.641 0.529-1.342 1.092-2.101 1.688l-5.24 3.956-14.478 10.142-19.505 12.938-30.896 19.775-54.145 33.661-75.171 45.669-64.013 38.308c-12.355 7.353-16.409 23.331-9.055 35.685s23.331 16.409 35.685 9.055zM501.3 959.997c60.792 0.449 91.386-50.017 106.378-132.63 1.085-5.98 2.076-12.049 2.999-18.332l2.598-19.608 6.224-58.697 2.393-33.459 3.010-38.678 3.16-36.96 300.418 313.765c9.943 10.385 26.423 10.744 36.808 0.802 9.441-9.039 10.597-23.48 3.259-33.834l-2.457-2.974-914.638-955.36c-9.943-10.385-26.423-10.744-36.808-0.802-9.441 9.039-10.597 23.48-3.259 33.834l2.457 2.974 285.12 297.883-34.213-10.546-66.692-20.096-44.873-13.121-29.729-8.357-12.711-3.43-16.276-4.173-8.939-2.115-7.369-1.566c-1.096-0.215-2.124-0.406-3.084-0.574-41.732-7.268-64.297 24.669-67.941 68.676-2.76 33.328 5.013 70.324 21.617 86.073l3.519 2.877 8.951 6.46 18.046 12.315 59.007 38.884 92.245 59.769 97.632 62.828 69.846 44.772 9.727 142.415 2.905 43.492 2.22 21.852c11.113 97.644 40.344 155.131 108.447 155.64zM501.687 907.928c-29.266-0.217-47.205-33.108-56.005-100.476l-2.115-18.227-1.737-20.079-4.678-72.532-8.157-116.816c-0.514-7.017-3.84-13.473-9.135-17.959l-9.814-6.554-217.484-139.911-106.217-69.48-19.016-12.909-2.768-2.092c-2.371-2.25-7.119-24.849-5.535-43.978 1.471-17.759 4.555-22.124 7.11-21.679l9.349 1.946 13.119 3.214 23.005 6.148 45.346 12.914 46.694 13.825 71.454 21.714 98.144 30.502 208.107 217.341c-0.908 2.245-1.515 4.656-1.768 7.187l-3.474 37.622-3.104 36.721-3.037 39.031-2.253 32.142-2.11 19.233-2.892 28.49c-1.84 16.869-3.804 31.225-6.268 44.8-10.872 59.911-29.143 90.049-54.762 89.859z" />
<glyph unicode="&#xe92a;" glyph-name="flight-takeoff" d="M935.821 153.743c13.77 0 24.933-11.163 24.933-24.933 0-12.622-9.38-23.055-21.549-24.705l-3.384-0.228h-834.474c-13.77 0-24.933 11.163-24.933 24.933 0 12.622 9.38 23.055 21.549 24.705l3.384 0.228h834.474zM394.398 791.378c6.331 1.583 13.029 0.621 18.658-2.679v0l231.517-135.713 80.084 31.019 32.765 12.274 9.964 3.501 20.285 7.436 16.493 5.678c31.225 10.013 60.732 15.647 89.436 15.098 49.31-0.944 90.004-20.669 116.529-63.908 31.67-55.914 6.426-103.417-48.518-137.293-12.181-7.51-25.069-13.874-37.944-19.179-1.295-0.534-2.546-1.039-3.743-1.514v0l-6.475-2.478-6.407-2.194-599.395-217.038c-63.463-19.522-113.62-15.365-150.447 4.492-12.756 6.878-21.368 14.215-27.301 21.426v0l-109.019 150.978-16.685 25.038c-8.961 13.447-2.959 31.736 12.229 37.258v0l91.778 33.371c6.433 2.34 13.545 1.93 19.668-1.13v0l123.73-61.84 133.208 50.763-137.429 173.579c-10.493 13.254-4.945 32.492 10.127 38.57v0l3.373 1.094zM396.642 740.55l-86.201-21.542 134.593-170.013c9.712-12.268 5.762-30.016-7.461-37.291v0l-3.214-1.486-175.244-66.74c-6.52-2.483-13.782-2.121-20.021 0.998v0l-123.928 61.971-51.827-18.849 105.924-146.729c0.829-0.995 3.593-3.398 8.443-6.301v0l3.16-1.795c24.821-13.383 61.168-16.395 110.96-1.111v0l599.348 217.024c0.489 0.152 1.071 0.34 1.739 0.565v0l4.996 1.795 6.761 2.672c10.551 4.347 21.087 9.55 30.77 15.52 35.031 21.597 46.568 43.31 31.745 69.514-16.438 26.778-41.124 38.744-74.541 39.383-22.34 0.428-46.806-4.245-73.256-12.726v0l-13.033-4.478-31.62-11.417-32.176-12.054-90.973-35.343c-7.124-2.806-15.143-2.184-21.748 1.689v0l-233.199 136.742z" />
<glyph unicode="&#xe92b;" glyph-name="bank-transfer" d="M12.8 627.2l486.4 300.8c9.6 6.4 19.2 6.4 25.6 0l486.4-300.8c22.4-12.8 12.8-48-12.8-48h-972.8c-25.6 3.2-35.2 35.2-12.8 48zM912 633.6l-400 246.4-400-246.4h800zM998.4 12.8c12.8 0 25.6-12.8 25.6-25.6s-9.6-22.4-22.4-25.6h-976c-12.8 0-25.6 12.8-25.6 25.6s9.6 22.4 22.4 25.6h976zM979.2 89.6c0 12.8-12.8 25.6-25.6 25.6h-96v352h32c12.8 3.2 22.4 12.8 22.4 25.6s-12.8 25.6-25.6 25.6h-108.8c-12.8-3.2-22.4-12.8-22.4-25.6s12.8-25.6 25.6-25.6h25.6v-352h-166.4v352h35.2c12.8 3.2 22.4 12.8 22.4 25.6s-12.8 25.6-25.6 25.6h-108.8c-12.8-3.2-22.4-12.8-22.4-25.6s12.8-25.6 25.6-25.6h25.6v-352h-163.2v352h32c12.8 3.2 22.4 12.8 22.4 25.6s-12.8 25.6-25.6 25.6h-108.8c-12.8-3.2-22.4-12.8-22.4-25.6s12.8-25.6 25.6-25.6h25.6v-352h-166.4v352h32c12.8 3.2 22.4 12.8 22.4 25.6s-12.8 25.6-25.6 25.6h-108.8c-12.8-3.2-22.4-12.8-22.4-25.6s12.8-25.6 25.6-25.6h25.6v-352h-80c-12.8-3.2-22.4-12.8-22.4-25.6s12.8-25.6 25.6-25.6h876.8c9.6 3.2 19.2 12.8 19.2 25.6z" />
<glyph unicode="&#xe92c;" glyph-name="social-google-circle" d="M512 960c-282.784 0-512-229.216-512-512s229.216-512 512-512 512 229.216 512 512-229.216 512-512 512zM517.891 169.689c-157.102 0-284.202 124.482-284.202 278.311s127.1 278.311 284.202 278.311c76.587 0 140.628-27.82 190.050-72.551l-80.188-78.333c-29.675 27.82-69.169 42.876-109.862 42.112-93.716 0.327-169.976-75.060-170.63-168.885s75.060-169.976 168.885-170.303c0.327 0 1.091 0 1.527 0 84.988 0 142.81 47.676 154.92 113.135h-154.702v108.88h266.855c3.709-19.42 5.564-38.839 5.564-58.586 0-158.957-108.771-272.092-272.419-272.092z" />
<glyph unicode="&#xe92d;" glyph-name="swap-horizontal" horiz-adv-x="1008" d="M254.444 479.407c9.677-9.384 10.772-24.284 3.136-34.913l-2.553-3.051-164.765-169.887 579.331-0.010c14.828 0 26.847-12.020 26.847-26.847 0-13.591-10.1-24.825-23.204-26.603l-3.643-0.245-579.331 0.010 164.765-169.907c10.321-10.645 10.061-27.642-0.584-37.964-9.677-9.384-24.604-10.021-34.992-2.061l-2.971 2.646-210.688 217.456c-0.552 0.696-1.065 1.413-1.539 2.148-0.384 0.597-0.757 1.231-1.106 1.884-0.272 0.508-0.515 1-0.74 1.496-0.323 0.707-0.622 1.444-0.888 2.198-0.157 0.449-0.3 0.893-0.431 1.338-0.215 0.721-0.4 1.46-0.552 2.212-0.108 0.541-0.203 1.093-0.281 1.647-0.009 0.054-0.013 0.079-0.016 0.103l-0.245 3.643 0.245 3.643c0.092 0.651 0.192 1.23 0.311 1.805 0.151 0.745 0.336 1.482 0.55 2.205 0.12 0.393 0.239 0.765 0.367 1.137 0.279 0.811 0.6 1.612 0.959 2.393 0.202 0.441 0.419 0.884 0.65 1.322l0.653 1.165 0.908 1.428 0.435 0.618c0.887 1.228 1.876 2.376 2.954 3.436l208.454 214.974c10.321 10.645 27.32 10.906 37.964 0.584zM788.55 888.074l2.971-2.646 208.913-215.435 2.119-2.5 1.194-1.669c0.384-0.597 0.757-1.231 1.106-1.884 0.272-0.508 0.515-1 0.74-1.496 0.323-0.707 0.622-1.444 0.888-2.198 0.157-0.449 0.3-0.893 0.431-1.338 0.215-0.721 0.4-1.46 0.552-2.212l0.281-1.647 0.016-0.103 0.245-3.643-0.245-3.643c-0.092-0.651-0.192-1.23-0.311-1.805-0.151-0.745-0.336-1.482-0.55-2.205-0.12-0.393-0.239-0.765-0.367-1.137-0.279-0.811-0.6-1.612-0.959-2.393-0.202-0.441-0.419-0.884-0.65-1.322-0.417-0.789-0.87-1.552-1.358-2.291-0.134-0.205-0.269-0.403-0.407-0.599l-0.231-0.322c-0.887-1.228-1.876-2.376-2.954-3.436l-208.454-214.974c-10.321-10.645-27.32-10.906-37.964-0.584-9.677 9.384-10.772 24.284-3.136 34.913l2.553 3.051 164.765 169.887-579.331 0.010c-14.828 0-26.847 12.020-26.847 26.847 0 13.591 10.1 24.825 23.204 26.603l3.643 0.245 579.331-0.010-164.765 169.907c-10.321 10.645-10.061 27.642 0.584 37.964 9.677 9.384 24.604 10.021 34.992 2.061z" />
<glyph unicode="&#xe92e;" glyph-name="swap-horizontal-circle" d="M512 960c282.77 0 512-229.23 512-512s-229.23-512-512-512c-282.77 0-512 229.23-512 512s229.23 512 512 512zM512 912c-256.26 0-464-207.74-464-464s207.74-464 464-464c256.26 0 464 207.74 464 464s-207.74 464-464 464zM399.313 472.092c7.785-7.55 8.667-19.538 2.523-28.089l-2.054-2.454-132.551-136.685 466.085-0.005c11.929 0 21.6-9.671 21.6-21.6 0-10.935-8.126-19.973-18.669-21.403l-2.931-0.197-466.021 0.005 132.487-136.694c8.305-8.564 8.095-22.239-0.469-30.543-7.785-7.55-19.795-8.062-28.153-1.659l-2.39 2.128-169.634 175.12-0.787 1.073c-0.45 0.658-0.881 1.372-1.271 2.111-0.102 0.192-0.196 0.377-0.287 0.563l-0.186 0.39-0.861 2.15c-0.066 0.196-0.13 0.392-0.191 0.589-0.188 0.604-0.35 1.224-0.483 1.854-0.708 3.349-0.619 6.816 0.264 10.115l0.194 0.686 0.351 1.051c0.249 0.694 0.535 1.374 0.854 2.035l0.31 0.618c0.901 1.721 2.024 3.304 3.333 4.712l0.317 0.334 168.079 173.326c8.305 8.564 21.979 8.774 30.543 0.469zM824.64 638.976l1.022-1.215 0.657-0.909c0.45-0.658 0.881-1.372 1.271-2.111 0.102-0.192 0.196-0.377 0.287-0.563l0.186-0.39 0.861-2.15 0.191-0.589c0.188-0.604 0.35-1.224 0.483-1.854 0.708-3.349 0.619-6.816-0.264-10.115l-0.194-0.686-0.351-1.051c-0.249-0.694-0.535-1.374-0.854-2.035-0.099-0.206-0.203-0.413-0.31-0.618-0.901-1.721-2.024-3.304-3.333-4.712l-0.317-0.334-168.079-173.326c-8.305-8.564-21.979-8.774-30.543-0.469-7.785 7.55-8.667 19.538-2.523 28.089l2.054 2.454 132.551 136.685-466.085 0.005c-11.929 0-21.6 9.671-21.6 21.6 0 10.935 8.126 19.973 18.669 21.403l2.931 0.197 466.021-0.005-132.487 136.694c-8.305 8.564-8.095 22.239 0.469 30.543 7.785 7.55 19.795 8.062 28.153 1.659l2.39-2.128 168.742-174.069z" />
<glyph unicode="&#xe92f;" glyph-name="flight-landing" d="M998.418 106.709c14.128 0 25.582-11.453 25.582-25.582 0-12.951-9.624-23.654-22.11-25.348l-3.472-0.233h-935.068c-14.128 0-25.582 11.453-25.582 25.582 0 12.951 9.624 23.654 22.11 25.348l3.472 0.233h935.068zM338.532 811.383c-2.517 18.412 14.818 33.279 32.631 27.987v0l136.394-40.525c6.417-1.907 11.831-6.253 15.080-12.105v0l134.728-242.674 25.431-4.162 54.448-9.032 43.412-7.634 10.709-2.125 22.455-4.121 10.307-2.038c19.514-4.122 37.678-9.198 55.156-15.926 66.193-25.482 108.1-69.273 109.234-137.184-1.061-57.507-38.397-88.068-93.703-94.981-20.344-2.543-41.742-1.812-62.836 1.039v0l-8.871 1.325-6.997 1.251-4.681 1.009-647.662 122.119c-38.312 9.186-69.016 23.206-92.756 41.111-33.295 25.109-48.064 52.701-51.673 75.294v0l-17.611 191.708-1.688 31.046c-0.9 16.559 13.949 29.584 30.249 26.534v0l99.264-18.573c6.905-1.292 12.974-5.366 16.785-11.267v0l77.595-120.193 145.651-24.986zM394.589 779.047l30.407-222.413c2.342-17.129-12.63-31.601-29.67-28.678v0l-191.081 32.773c-7.056 1.21-13.281 5.321-17.165 11.335v0l-77.761 120.408-56.362 10.537 17.109-186.556c1.282-7.895 8.467-21.776 26.549-36.774v0l5.205-4.114c17.945-13.534 42.21-24.613 72.655-31.944v0l664.361-125.018c17.069-2.307 34.266-2.894 49.638-0.973 32.624 4.078 48.376 16.971 48.895 44.252-0.718 42.441-27.69 70.624-76.46 89.399-14.656 5.642-30.298 10.013-47.348 13.614v0l-50.247 9.514-28.499 4.979-97.805 16.096c-7.758 1.24-14.515 5.975-18.328 12.844v0l-135.683 244.442-88.405 26.278z" />
<glyph unicode="&#xe930;" glyph-name="clock" d="M512 960c282.77 0 512-229.23 512-512s-229.23-512-512-512c-282.77 0-512 229.23-512 512s229.23 512 512 512zM512 911.238c-255.839 0-463.238-207.399-463.238-463.238s207.399-463.238 463.238-463.238c255.839 0 463.238 207.399 463.238 463.238s-207.399 463.238-463.238 463.238zM479.492 797.814c12.343 0 22.544-9.172 24.158-21.072l0.222-3.309v-372.569l231.043 136.721c10.622 6.286 24.072 3.588 31.523-5.831l1.876-2.734c6.286-10.622 3.588-24.072-5.831-31.523l-2.734-1.876-267.841-158.506c-15.297-9.052-34.395 0.792-36.59 17.727l-0.208 3.256v415.336c0 13.465 10.916 24.381 24.381 24.381z" />
<glyph unicode="&#xe931;" glyph-name="airplane-change" d="M964.017 881.115c1.811-12.793-6.2-24.712-18.297-28.13l-3.397-0.716-101.94-14.388 9.854-8.404c109.499-95.836 173.763-234.149 173.763-382.904 0-280.972-227.772-508.744-508.744-508.744-14.096 0-25.522 11.426-25.522 25.522s11.426 25.522 25.522 25.522c252.781 0 457.7 204.92 457.7 457.7 0 137.925-61.343 265.777-165.415 352.236-5.099 4.236-8.129 10.039-8.971 16.125l3.386-115.562c0.374-12.915-8.914-23.867-21.316-25.917l-3.455-0.333c-12.915-0.374-23.867 8.914-25.917 21.316l-0.333 3.455-4.504 155.298c-0.342 11.809 7.431 22.138 18.515 25.286l3.42 0.723 166.806 23.61c13.956 1.976 26.871-7.737 28.847-21.694zM535.377 957.462c14.076-0.738 24.889-12.747 24.151-26.822s-12.747-24.889-26.822-24.151c-252.434 13.23-467.797-180.684-481.027-433.119-8.101-154.572 61.772-300.040 183.501-390.963 1.841-1.375 3.442-2.95 4.798-4.673l4.253 105.079c0.527 12.91 10.556 23.188 23.073 24.368l3.47 0.091c12.91-0.527 23.188-10.556 24.368-23.073l0.091-3.47-6.34-155.233c-0.482-11.804-8.957-21.565-20.234-23.933l-3.461-0.483-168.047-11.917c-14.060-0.997-26.266 9.593-27.264 23.652-0.913 12.889 7.909 24.219 20.214 26.786l3.438 0.477 103.387 7.335-1.854 1.415c-129.334 101.407-203.155 259.525-194.367 427.211 14.705 280.587 254.085 496.127 534.672 481.422zM417.167 799.855c23.196 1.921 48.961-3.492 59.842-14.964 0.156-0.166 0.335-0.366 0.535-0.602v0l2.386-3.076 2.244-3.109 14.22-20.914 29.664-45.231 54.402-84.171 56.401-87.868 58.528-4.101 69.792-4.593 15.128-1.462 14.899-1.882c60.566-8.802 95.781-29.47 96.106-73.815v0l-0.094-4.289c-2.040-39.369-36.714-59.576-92.372-69.675-10.463-1.898-21.32-3.384-33.919-4.759v0l-33.75-3.519-23.457-1.678c-4.639-0.346-9.221-0.694-13.741-1.046v0l-26.346-2.139-29.577-2.609-30.354-51.383-21.659-36.302-21.162-35.134-21.757-35.681-19.144-30.83-13.211-20.749-8.667-13.228-7.593-11.19-4.461-6.312-3.977-5.382-3.491-4.443-3.002-3.493-1.317-1.388c-46.602-40.546-123.285 4.001-109.071 47.689v0l8.083 21.857 11.267 30.879 13.461 37.685 11.731 33.798 7.698 22.864 8.844 27.262 5.601 18.088 5.689 19.429 2.816 10.24-155.431 11.667-0.359-1.691c-7.071-30.796-21.963-51.247-42.89-61.701v0l-3.994-1.843c-15.442-6.559-31.333-7.148-46.001-4.34v0l-4.16 0.911-3.009 0.851c-7.222 2.347-12.132 9.052-12.189 16.646v0l-1.596 213.383c-0.043 6.195 3.165 11.961 8.453 15.19 38.823 23.697 72.020 5.7 95.492-33.617 5.113-8.564 9.453-17.623 13.077-26.671l-0.693 1.607 0.032 0.014 148.21 17.641-11.858 36.059-19.569 60.457-15.812 50.055-10.509 34.506-5.32 18.364-3.9 14.466-1.956 8.196-0.827 4.162c-5.015 28.795 17.051 44.386 47.591 46.915zM425.642 764.933l-5.564-0.241c-12.755-1.056-16.136-3.445-15.744-5.694v0l0.736-3.634 1.842-7.552 3.774-13.805 6.706-22.856 10.72-34.902 19.742-62.066 13.152-40.492 18.591-56.418c3.533-10.601-3.556-21.773-14.652-23.094v0l-183.489-21.835c-8.498-1.011-16.496 4.222-18.971 12.413v0l-0.933 2.829-2.528 6.71c-2.981 7.443-6.542 14.875-10.618 21.703-11.637 19.492-22.996 28.426-36.014 25.983v0l-2.238-0.536 1.364-186.95 1.866-0.026c3.723 0.116 7.441 0.68 11.012 1.78v0l3.518 1.284c14.607 6.205 25.077 22.107 28.777 53.605 1.103 9.391 9.413 16.242 18.842 15.533v0l191.752-14.403c9.89-0.743 17.224-9.49 16.231-19.357v0l-0.399-2.938-0.719-3.908-1.745-7.813-2.634-10.34-5.072-18.075-5.080-16.94-5.984-19.051-9.359-28.533-10.986-32.197-9.339-26.608-13.96-38.831-15.435-42.004c0.283 0.515 0.543 0.359 0.983-0.255v0l1.178-1.779c2.884-4.257 7.565-8.587 12.947-11.713 12.557-7.295 25.259-6.854 36.201 2.596v0l1.893 2.143 2.471 3.162 3.031 4.148 5.552 8.006 6.703 10.054 7.788 11.997 15.22 24.031 21.589 34.9 37.431 61.852 32.431 54.469 23.952 40.662c2.85 4.871 7.859 8.086 13.475 8.647v0l39.013 3.525 26.58 2.158 28.061 2.087 8.366 0.551 4.032 0.494 36.306 3.796c8.945 1.070 16.919 2.228 24.545 3.612 42.26 7.668 63.622 20.62 63.487 38.986-0.164 21.847-25.511 34.736-77.265 40.627v0l-14.477 1.466-85.263 5.679-53.56 3.785c-5.548 0.406-10.578 3.406-13.573 8.093v0l-35.461 55.339-46.694 72.557-60.606 93.122-15.567 23.219-2.174 2.937-3.231 1.154c-0.507 0.162-1.066 0.332-1.67 0.504v0l-4.125 1.022c-6.938 1.457-15.047 1.988-22.292 1.388z" />
<glyph unicode="&#xe932;" glyph-name="dollar-no" d="M512 960c282.77 0 512-229.23 512-512s-229.23-512-512-512c-282.77 0-512 229.23-512 512s229.23 512 512 512zM512 911.238c-118.922 0-227.378-44.812-309.402-118.472l73.080-73.088c9.763-9.763 9.763-25.592 0-35.355-9.665-9.665-25.276-9.762-35.061-0.29l-73.383 73.37c-73.66-82.024-118.472-190.48-118.472-309.402 0-255.839 207.399-463.238 463.238-463.238 118.922 0 227.378 44.812 309.402 118.472l-87.080 87.088c-9.763 9.763-9.763 25.592 0 35.355 9.665 9.665 25.276 9.762 35.061 0.29l87.383-87.37c73.66 82.024 118.472 190.48 118.472 309.402 0 255.839-207.399 463.238-463.238 463.238zM504.16 819.264c12.342-0.005 22.543-9.177 24.157-21.077l0.222-3.309-0.026-73.161 37.668-0.001c54.32-2.15 91.254-26.967 105.074-72.9 3.88-12.894-3.429-26.492-16.323-30.372s-26.492 3.429-30.372 16.323c-6.947 23.088-23.369 35.274-53.197 37.823l-6.145 0.382h-125.855c-54.14 0-98.029-43.889-98.029-98.029 0-52.206 40.81-94.881 92.269-97.862l5.76-0.167h123.346c81.070 0 146.791-65.721 146.791-146.791 0-78.754-62.019-143.023-139.881-146.631l-6.91-0.159-33.999 0.018 0.001-73.161c0-13.465-10.916-24.381-24.381-24.381-12.343 0-22.544 9.172-24.158 21.072l-0.222 3.309-0.001 73.161-65.396-0.018c-55.638 0-92.777 26.501-104.683 76.507-3.119 13.099 4.972 26.246 18.071 29.365s26.246-4.972 29.365-18.071c6.056-25.435 21.327-37.574 51.429-38.914l5.819-0.125h148.157c54.14 0 98.029 43.889 98.029 98.029 0 52.206-40.81 94.881-92.269 97.862l-5.76 0.167h-123.346c-81.070 0-146.791 65.721-146.791 146.791s65.721 146.791 146.791 146.791l40.39 0.014 0.026 73.129c0 12.343 9.172 22.544 21.073 24.158l3.306 0.228z" />
<glyph unicode="&#xe933;" glyph-name="refunds" d="M547.713 958.737c282.071-19.728 494.743-264.381 475.019-546.45s-264.377-494.742-546.446-475.017c-282.070 19.724-494.742 264.377-475.017 546.446 0.938 13.432 12.59 23.56 26.022 22.62s23.56-12.59 22.62-26.022c-17.845-255.207 174.572-476.558 429.778-494.404s476.558 174.572 494.404 429.778c17.845 255.207-174.572 476.558-429.778 494.404-147.372 10.306-287.957-49.648-382.721-159.083l111.131 0.030c12.342-0.072 22.489-9.304 24.032-21.215l0.202-3.309c-0.072-12.342-9.304-22.489-21.215-24.032l-3.309-0.202-161.248 0.010c-11.286 0.067-20.887 7.833-23.522 18.517l-0.578 3.289-6.022 172.464c-1.42 13.389 8.282 25.396 21.671 26.816 12.274 1.302 23.385-6.741 26.245-18.405l0.569-3.266 2.673-110.312c104.541 115.526 256.48 178.461 415.49 167.343zM504.167 819.245c12.338 0 22.537-9.171 24.153-21.071l0.222-3.309-0.012-73.133 37.651-0.026c54.318-2.149 91.251-26.966 105.069-72.896 3.878-12.893-3.428-26.492-16.321-30.37s-26.492 3.428-30.37 16.321c-6.946 23.086-23.369 35.274-53.194 37.822l-6.147 0.382h-125.85c-54.138 0-98.024-43.888-98.024-98.024 0-52.205 40.809-94.878 92.266-97.858l5.759-0.166h123.341c81.066 0 146.784-65.717 146.784-146.784 0-78.75-62.016-143.017-139.874-146.625l-6.909-0.161-34.034 0.030 0.036-73.169c0-13.465-10.915-24.38-24.38-24.38-12.343 0-22.543 9.171-24.158 21.071l-0.222 3.309-0.033 73.169-65.361-0.030c-55.635 0-92.773 26.499-104.678 76.504-3.118 13.1 4.972 26.245 18.071 29.364s26.245-4.972 29.364-18.071c6.055-25.433 21.326-37.573 51.426-38.914l5.82-0.126h148.151c54.138 0 98.024 43.887 98.024 98.024 0 52.205-40.809 94.878-92.266 97.858l-5.759 0.166h-123.341c-81.066 0-146.784 65.717-146.784 146.784s65.717 146.784 146.784 146.784l40.407 0.006 0.010 73.133c0 13.465 10.915 24.386 24.38 24.386z" />
<glyph unicode="&#xe934;" glyph-name="stop" d="M512 960c282.77 0 512-229.23 512-512s-229.23-512-512-512c-282.77 0-512 229.23-512 512s229.23 512 512 512zM512 904.518c-252.127 0-456.518-204.389-456.518-456.518s204.389-456.518 456.518-456.518c252.127 0 456.518 204.389 456.518 456.518s-204.389 456.518-456.518 456.518zM512 728.85c155.11 0 280.85-125.741 280.85-280.85s-125.741-280.85-280.85-280.85c-155.11 0-280.85 125.741-280.85 280.85s125.741 280.85 280.85 280.85z" />
<glyph unicode="&#xe935;" glyph-name="social-flickr-circle" d="M512 960c-282.8 0-512-229.2-512-512s229.2-512 512-512 512 229.2 512 512-229.2 512-512 512zM381.2 552.2c57.6 0 104.2-46.7 104.2-104.2s-46.7-104.2-104.2-104.2-104.2 46.6-104.2 104.2 46.7 104.2 104.2 104.2zM642.8 552.2c57.6 0 104.2-46.7 104.2-104.2s-46.7-104.2-104.2-104.2-104.3 46.6-104.3 104.2 46.7 104.2 104.3 104.2z" />
<glyph unicode="&#xe936;" glyph-name="speachbubble" d="M494.005 959.999c272.823 0 493.985-221.175 493.985-494.005 0-96.131-27.537-188.267-78.517-267.339-8.063-12.507-24.74-16.11-37.247-8.045s-16.11 24.74-8.045 37.247c45.407 70.429 69.919 152.441 69.919 238.137 0 243.068-197.035 440.115-440.094 440.115-243.063 0-440.115-197.051-440.115-440.115 0-243.059 197.047-440.094 440.115-440.094 79.818 0 156.453 21.253 223.638 60.976 12.81 7.574 29.334 3.329 36.908-9.481s3.329-29.334-9.481-36.908c-75.435-44.601-161.531-68.478-251.065-68.478-272.83 0-494.005 221.163-494.005 493.985 0 272.827 221.178 494.005 494.005 494.005zM242.645 380.439c37.312 0 67.561 30.248 67.561 67.561s-30.248 67.561-67.561 67.561c-37.312 0-67.561-30.248-67.561-67.561s30.248-67.561 67.561-67.561zM493.995 380.439c37.312 0 67.561 30.248 67.561 67.561s-30.248 67.561-67.561 67.561c-37.312 0-67.561-30.248-67.561-67.561s30.248-67.561 67.561-67.561zM910.394 228.534l1.686-3.254 109.593-251.488c9.244-21.214-10.637-42.811-31.872-36.757l-3.36 1.19-251.488 106.77c-13.698 5.816-20.088 21.635-14.273 35.332 5.331 12.556 19.067 18.973 31.871 15.476l3.461-1.202 189.224-80.304-82.56 189.456c-5.45 12.506-0.66 26.89 10.684 33.78l3.254 1.686c12.506 5.45 26.89 0.66 33.78-10.684zM745.345 515.561c37.312 0 67.561-30.248 67.561-67.561s-30.248-67.561-67.561-67.561c-37.312 0-67.561 30.248-67.561 67.561s30.248 67.561 67.561 67.561z" />
<glyph unicode="&#xe937;" glyph-name="social-flickr" d="M227.1 675.6c125.4 0 227.1-101.7 227.1-227.1s-101.7-227.1-227.1-227.1-227.1 101.7-227.1 227.1 101.7 227.1 227.1 227.1zM796.9 675.6c125.4 0 227.1-101.7 227.1-227.1s-101.7-227.1-227.1-227.1-227.1 101.7-227.1 227.1 101.7 227.1 227.1 227.1z" />
<glyph unicode="&#xe938;" glyph-name="boarding-pass" d="M310.196 754.81c1.817 0 3.59-0.191 5.3-0.553l602.492-0.033c58.744 0 106.012-49.012 106.012-109.011v0-394.911c0-60.065-47.293-109.111-106.108-109.111v0h-808.733c-58.456 0-105.591 48.491-106.069 108.19v0l-0.449 57.519c-0.093 11.996 8.199 22.429 19.906 25.047 53.733 12.011 92.602 59.947 92.602 115.761 0 56.489-39.804 104.835-94.399 116.147-11.744 2.434-20.197 12.732-20.295 24.725v0l-0.451 55.097c-0.494 60.704 47.175 110.545 106.618 110.545v0l198.273 0.033c1.71 0.362 3.483 0.553 5.3 0.553zM917.988 703.302l-582.338 0.008 0.007-92.781c0-12.89-9.579-23.543-22.006-25.229l-3.455-0.232c-14.062 0-25.461 11.399-25.461 25.461v0l-0.007 92.781-178.105-0.008c-29.115 0-53.292-23.676-55.528-54.080l-0.167-5.126 0.264-35.887 1.941-0.637c64.168-22.678 109.6-82.45 112.763-152.087v0l0.176-7.776c0-72.062-45.305-134.909-110.726-159.063v0l-1.642-0.538 0.308-38.324c0.244-30.442 22.533-54.963 50.446-57.46v0l4.701-0.209 175.568 0.032 0.007 61.922c0 12.89 9.579 23.543 22.006 25.229l3.455 0.232c14.062 0 25.461-11.399 25.461-25.461v0l-0.007-61.922 582.242-0.032c28.675 0 52.548 23.192 54.981 53.138l0.204 5.051v394.911c0 32.28-24.891 58.088-55.089 58.088v0zM310.196 517.171c14.062 0 25.461-11.399 25.461-25.461v0-118.82c0-14.062-11.399-25.461-25.461-25.461s-25.461 11.399-25.461 25.461v0 118.82c0 14.062 11.399 25.461 25.461 25.461zM915.21 447.904l0.201 4.744c-0.271 32.79-25.873 47.365-68.785 53.284l-15.523 1.754-14.815 1.045-14.625 0.907-54.868 3.796-58.234 90.495-25.484 39.17-15.232 22.732-4.353 5.925c-0.236 0.285-0.439 0.52-0.613 0.702-8.371 8.827-26.566 12.649-43.062 11.284-22.416-1.855-39.406-13.862-35.493-36.328l1.062-5.036 1.743-6.883 3.846-13.677 9.52-31.318 9.072-28.656 11.359-35.134 7.414-22.472-87.614-10.436-1.195 2.729c-3.959 8.542-8.898 16.732-15.022 23.785-16.051 18.486-37.568 24.436-59.941 10.779-4.903-2.993-7.878-8.34-7.838-14.084l1.046-139.672c0.053-7.041 4.605-13.259 11.302-15.435l3.176-0.861c0.645-0.149 1.345-0.297 2.098-0.441 10.457-2.002 21.782-1.583 32.895 3.138l4.365 2.101c12.726 6.886 22.126 19.037 27.403 36.364l0.958 3.592 91.899-6.903-3.906-13.327-6.328-20.168-7.916-23.782-9.577-27.528-7.341-20.499-12.5-34.063c-10.942-33.625 45.022-66.135 79.061-36.52l3.352 3.787 4.166 5.417 4.986 7.034 5.811 8.638 6.639 10.23 15.787 25.19 16.914 27.697 11.521 19.112 35.2 59.227 40.75 3.37 17.592 1.266 4.52 0.517 15.396 1.518 13.040 1.57c4.085 0.56 7.975 1.172 11.865 1.879 37.734 6.847 62.047 20.745 64.305 48.44zM882.668 452.403c0.063-8.771-12.041-16.11-37.605-20.749-2.954-0.536-5.906-1.011-9.022-1.453l-9.998-1.262-23.22-2.422-16.792-1.18-49.834-4.25c-5.208-0.52-9.853-3.501-12.495-8.018l-27.485-46.499-30.245-50.236-15.465-25.101-15.566-24.528-6.969-10.488-4.941-6.92-2.066-2.471c-5.243-4.496-11.32-4.707-17.851-0.914l-2.753 1.874c-0.859 0.677-1.652 1.396-2.352 2.128l-1.616 2.023 15.748 43.198 10.943 31.051 6.779 19.957 7.254 22.4 5.353 17.853 3.604 13.594 1.192 5.29 1.121 6.483c1.127 9.262-5.709 17.589-15.013 18.288l-125.513 9.427c-8.743 0.657-16.449-5.696-17.472-14.404-2.232-18.998-8.081-27.882-15.94-31.22l-3.333-1.065-0.715-0.075-0.851 112.935 1.427-0.192c2.842-0.695 5.592-2.869 8.821-6.587 5.874-6.765 10.766-16.624 13.996-25.889l0.599-1.804c2.345-7.527 9.723-12.311 17.551-11.379l120.104 14.292c10.289 1.224 16.862 11.584 13.586 21.414l-19.352 59.020-13.866 43.502-7.328 23.822-4.152 14.1-2.884 10.505-1.199 5.18c0.23-0.494 0.697-0.699 1.947-0.709l3.707 0.214c2.84 0.236 5.902 0.111 8.613-0.128l7.998-1.050 7.599-11.172 44.362-68.107 52.533-81.791c2.777-4.345 7.442-7.127 12.586-7.504l91.888-6.283 8.263-0.854c29.529-3.361 44.205-10.047 46.096-19.725l0.213-2.123z" />
<glyph unicode="&#xe939;" glyph-name="document-info" d="M678.7 821.3l116.2-125.2h-116.2v125.2zM927.6 641.2c0.1 13.9-17.2 28.8-20.2 31.9l-265.7 275.5c-5.8 7.2-14.6 11.4-23.8 11.4h-466c-30.7 0-55.6-24.9-55.6-55.6v0-912.9c0-14.7 5.9-28.9 16.2-39.3 10.5-10.3 24.6-16.1 39.3-16.2h720.2c30.7 0 55.6 24.9 55.6 55.6v0 649.6zM865.6 634.1v-636h-707v900h458.1v-232.9c0.1-17.2 14.1-31.1 31.3-31.1h217.6zM471.5 509.3c-0.1 6.4 1.2 12.8 3.6 18.8 2.5 5.9 6.1 11.2 10.7 15.6 4.5 4.5 9.8 8.1 15.6 10.6 11.6 4.8 24.7 4.8 36.3 0 5.8-2.5 11-6.1 15.3-10.6 4.5-4.4 8.1-9.8 10.5-15.6 2.4-6 3.6-12.4 3.5-18.8 0-6.3-1.1-12.6-3.5-18.4-2.4-5.9-6-11.2-10.5-15.8-4.4-4.6-9.6-8.3-15.4-10.8-5.7-2.4-11.9-3.6-18.1-3.6-6.4-0.1-12.7 1.2-18.6 3.6-5.8 2.5-11.1 6.1-15.5 10.7-4.5 4.5-8.1 9.8-10.5 15.7-2.2 6-3.4 12.3-3.4 18.6zM489.9 225l-1-3.7-0.7-2.9-0.3-2v-1.6c0-1.3 0.2-2.6 0.5-3.8v0c0.3-0.9 0.7-1.7 1.4-2.4 0.6-0.6 1.3-1.1 2.1-1.4 1-0.4 2.2-0.6 3.3-0.5 3.2 0.4 6.2 1.7 8.7 3.7 4.7 3.6 9 7.7 12.8 12.3 5.5 6.2 10.6 12.8 15.3 19.6 5.3 7.5 10.8 16.1 16.6 25.8 0.6 1 1.9 1.4 3 0.8l19.5-14.5c1-0.7 1.2-2 0.5-3-8.1-14.3-17.2-27.9-27.2-40.9-8.3-10.7-17.7-20.5-28.1-29.1v0c-8.8-7.3-18.7-13.1-29.3-17.4-9.8-3.9-20.3-5.9-30.9-5.9-8.2-0.1-16.3 1-24.2 3.3-6.6 1.9-12.7 5.3-17.8 9.9-4.9 4.5-8.7 10-11.1 16.2-2.5 6.9-3.8 14.2-3.6 21.5 0 2.7 0 5.5 0.5 8.4 0.5 3 0.8 5.9 1.5 9.4v0c0.6 3.2 1.5 6.8 2.6 10.8s2.4 8.5 4 13.4l33.9 106 2.8 9.9c0.7 2.8 1.3 5.2 1.8 7.4 0.4 1.8 0.7 3.6 0.9 5.4 0.2 1.5 0.3 3 0.4 4.6 0 2.2-0.4 4.4-1.2 6.5v0c-0.8 1.8-1.9 3.5-3.4 4.8-1.6 1.5-3.5 2.6-5.6 3.3-2.5 0.8-5 1.2-7.6 1.1h-27.6c-1.2 0-2.2 0.9-2.2 2.1v0.8l7.3 26.3c0.3 1 1.1 1.6 2.1 1.6l140.8 4.5c1.2 0 2.2-0.9 2.3-2.1v-0.7l-62.5-207.3v-0.2z" />
<glyph unicode="&#xe93a;" glyph-name="document-airplane" d="M480.636 959.579l3.433-0.866 494.873-160.794c12.59-4.091 19.956-16.827 17.658-29.501l-0.869-3.448-263.476-810.896c-4.023-12.383-16.435-19.746-28.957-17.749l-3.412 0.779-301.278 90.189-345.477-0.019c-13.238 0-24.178 9.837-25.91 22.6l-0.239 3.548v753.184c0 14.441 11.708 26.149 26.149 26.149v0l361.758 0.022 36.281 109.304c4.151 12.508 16.845 19.793 29.464 17.498zM492.597 900.974l-22.655-68.197 3.309-0.022c88.922 0 161.475-70.084 165.438-158.028l0.171-7.581v-474.265c0-68.611-41.723-127.476-101.181-152.608l152.74-45.71 247.498 761.718-445.319 144.693zM473.251 780.457l-393.976 0.016v-700.89l393.976-0.013c62.58 0 113.311 50.732 113.311 113.311v0 474.265c0 62.58-50.732 113.311-113.311 113.311v0zM433.759 199.463c14.441 0 26.149-11.708 26.149-26.149 0-13.238-9.837-24.178-22.6-25.91l-3.548-0.239h-185.772c-14.441 0-26.149 11.708-26.149 26.149 0 13.238 9.837 24.178 22.6 25.91l3.548 0.239h185.772zM492.086 279.363c14.441 0 26.149-11.708 26.149-26.149 0-13.238-9.837-24.178-22.6-25.91l-3.548-0.239h-299.644c-14.441 0-26.149 11.708-26.149 26.149 0 13.238 9.837 24.178 22.6 25.91l3.548 0.239h299.644zM332.921 708.9c101.61 0 183.982-82.372 183.982-183.982s-82.372-183.982-183.982-183.982c-101.61 0-183.982 82.372-183.982 183.982s82.372 183.982 183.982 183.982zM249.477 440.377l-39.419 0.014c19.418-28.172 48.276-49.335 82.005-58.923-18.055 19.29-32.272 38.932-42.587 58.909zM455.784 440.391l-34.652-0.014c-9.943-19.256-23.51-38.202-40.641-56.82 30.825 10.354 57.17 30.542 75.293 56.835zM380.858 440.374l-30.538 0.033 0.055-37.992c12.155 12.662 22.306 25.312 30.483 37.959zM315.455 440.407l-25.704-0.033c7.072-10.938 15.621-21.878 25.666-32.827l0.039 32.861zM233.565 556.764l-46.348 0.020c-2.235-10.267-3.413-20.929-3.413-31.866 0-17.413 2.985-34.13 8.471-49.666l43.271-0.005c-4.226 14.852-6.353 29.876-6.353 45.067 0 11.984 1.462 24.132 4.372 36.45zM400.964 556.763l-50.644 0.022v-81.515l48.108-0.032c5.433 15.016 8.123 30.036 8.123 45.074 0 11.719-1.855 23.872-5.587 36.45zM478.626 556.785l-41.581-0.020c2.91-12.317 4.372-24.466 4.372-36.45 0-15.191-2.127-30.215-6.353-45.067l38.504 0.005c5.486 15.536 8.471 32.252 8.471 49.666 0 10.936-1.178 21.599-3.413 31.866zM315.455 556.786l-45.81-0.022c-3.732-12.578-5.587-24.731-5.587-36.45 0-15.038 2.69-30.058 8.123-45.074l43.273 0.032v81.515zM296.037 669.406l-4.977-1.328c-40.057-11.693-73.137-39.742-91.527-76.43l45.92-0.030c11.173 25.228 28.070 51.146 50.586 77.786zM350.396 643.978l-0.076-52.326 36.062-0.043c-8.966 16.796-20.947 34.258-35.987 52.369zM375.94 667.736l2.86-3.404c20.413-24.86 35.894-49.087 46.357-72.711l41.153 0.030c-18.212 36.334-50.834 64.194-90.369 76.087zM315.44 638.123c-12.823-16.026-23.216-31.535-31.213-46.514l31.228 0.043z" />
<glyph unicode="&#xe93b;" glyph-name="document-airplane-text-v" d="M831.7 960c61.6 0 112.3-47.6 112.3-107.3v0-809.3c0-59.7-50.7-107.3-112.3-107.3v0h-639.4c-61.6-0.1-112.3 47.6-112.3 107.2v0 809.4c0 59.7 50.7 107.3 112.3 107.3v0h639.4zM831.7 907.8h-639.4c-33.8 0-60.4-25.1-60.4-55.2v0-809.3c0-30 26.7-55.2 60.4-55.2v0h639.4c33.8 0 60.4 25.1 60.4 55.2v0 809.4c0.1 30-26.6 55.1-60.4 55.1v0 0zM764.7 86.5c14.9 0 27-12.1 27-27 0-13.7-10.2-25-23.3-26.8l-3.7-0.2h-508.8c-14.9 0-27 12.1-27 27 0 13.7 10.2 25 23.3 26.8l3.7 0.2h508.8zM518.7 176.5c14.9 0 27-12.1 27-27 0-13.7-10.2-25-23.3-26.8l-3.7-0.2h-262.8c-14.9 0-27 12.1-27 27 0 13.7 10.2 25 23.3 26.8l3.7 0.2h262.8zM425 271.9c-6.4 0-12.4 3.4-15.8 8.8-8.5 14-11.2 27.8-8 41.1 3.9 15.9 16.7 30.7 36.9 42.8 5.6 3.4 11.8 6.5 18.3 9.3l-13.5 113.7-24.9-8.2-49.6-16.1-41.1-13-28.3-8.6-15.1-4.4-12-3.2-6.9-1.6-3.4-0.7c-2.5-0.4-5-0.7-7.3-0.7-20.3 0-33.7 16.2-36 43.3-1.5 17.6 2.1 41.5 13.5 52.3 0.2 0.2 0.4 0.4 0.7 0.6l0.1 0.1 2.6 2 2.6 1.9 17.2 11.7 37.1 24.4 69 44.6 70.4 45.2 3.2 46 3.8 57.3 1.2 12.5 1.5 12.2c5.1 35.2 17.4 82 64.5 82.3l7.9 0.1-0.3-0.5c15-1.8 27.3-9.4 36.8-22.7 9.1-12.9 15.7-31.2 20.2-56 1.5-8.3 2.8-17.2 3.9-28.1l2.9-27.8 1.4-19.2c0.3-3.8 0.6-7.5 0.9-11.2l1.8-21.6 2-22.2 40.4-23.8 29.8-17.8 28.8-17.4 29.3-17.9 25.3-15.7 17.1-10.9 10.9-7.1 9.2-6.3 5.2-3.7 4.6-3.4 3.7-2.9 3-2.6 1.4-1.4c18.3-21.1 16.1-47.8 7.9-65.8-8.8-19.3-24.9-31.7-41.2-31.7 0 0 0 0 0 0-3.4 0-6.8 0.5-10.1 1.6l-0.2 0.1-17.9 6.6-25.3 9.2-30.9 11-27.7 9.6-18.7 6.3-22.3 7.2-14.8 4.6-15.9 4.6-3.6 1-8.9-119.2c24.9-6.2 42.2-18.5 51.3-36.8l1.6-3.5c5.2-12.4 6.5-25.8 3.8-40l-0.8-3.6-0.8-2.7v-0.1c-2.5-7.6-9.5-12.7-17.4-12.8l-175-1.1zM474.3 341.3c-6.2-2.5-12-5.3-17.2-8.4-17.8-10.6-20.1-18.6-19.6-23.9l145.9 1.1c-0.2 1.8-0.6 3.6-1.1 5.3l-1 2.7c-5 11.6-18.3 18.5-40.7 21.1-9.9 1.2-17 9.8-16.3 19.7l11.8 157.2c0.7 9.6 8.8 17.1 18.4 17.1 0.6 0 1.2 0 1.9-0.1l2.6-0.4 3.4-0.6 6.5-1.5 8.5-2.2 14.9-4.2 14-4.2 15.7-4.9 23.4-7.7 26.4-9 21.9-7.7 31.9-11.5 31.9-11.7 0.6 0.4c3 2.1 6.2 5.5 8.4 9.3 5.3 9.1 4.8 17.4-1.5 24.9l-1.5 1.3-2.4 1.9-3.3 2.4-6.5 4.5-8.2 5.5-9.8 6.4-19.7 12.5-28.6 17.7-50.6 30.7-44.6 26.6-33.3 19.6c-5.1 3-8.5 8.2-9 14.1l-2.9 32-1.8 21.8-1.7 23-0.4 6.8-0.4 3.2-3.3 29.9c-0.9 7.4-1.8 13.9-2.9 19.8-4 22.2-12.2 48.8-27.9 48.8h-0.4c-15-0.3-24.6-19.9-29.1-59.8l-1.2-11.8-4.7-69.8-3.1-43.9c-0.4-5.8-3.6-11.1-8.5-14.2l-104.8-67.4-76.3-49.7-18.9-12.7-1.4-1-0.5-1.4c-0.1-0.3-0.2-0.7-0.3-1.1l-0.8-3.2c-1.1-5.4-1.5-11.6-1.1-17.1 0.4-5.3 1.1-7.8 1.5-9l1.2 0.3 6.1 1.5 11.3 3.1 18.7 5.5 28.6 8.8 50.9 16.2 33.2 10.8 46.2 15.2c1.9 0.6 3.9 1 5.8 1 9.3 0 17.2-7 18.3-16.3l17.9-150.5c1.1-8.9-4.4-17.3-13-19.9l-2.1-0.7-5.4-2.2z" />
<glyph unicode="&#xe93c;" glyph-name="social-whatsapp" d="M512 959.999c-282.501 0-512-229.499-512-512 0-90.804 24.903-175.547 66.435-249.522l-65.609-234.217c-0.522-1.797-0.823-3.862-0.823-5.996 0-12.296 9.967-22.263 22.263-22.263 1.897 0 3.738 0.237 5.496 0.684l-0.154-0.033 244.217 60.522c71.762-38.311 153.191-61.174 240.174-61.174 282.501 0 512 229.499 512 512s-229.499 512-512 512zM512 915.477c258.438 0 467.478-209.040 467.478-467.478s-209.040-467.478-467.478-467.478c-82.854 0-160.453 21.601-227.913 59.348-3.127 1.779-6.871 2.828-10.86 2.828-1.902 0-3.749-0.239-5.512-0.688l0.154 0.034-213.87-53 57.348 204.609c0.537 1.822 0.846 3.913 0.846 6.078 0 4.154-1.138 8.043-3.12 11.372l0.057-0.102c-40.997 69.518-64.609 150.403-64.609 237 0 258.438 209.040 467.478 467.478 467.478zM325.957 715.129c-14.27 0-34.65-5.309-51.391-23.348-10.055-10.835-51.957-51.661-51.957-123.435 0-74.83 51.899-139.4 58.174-147.696h0.043v-0.043c-0.596 0.783 7.965-11.614 19.391-26.478s27.404-34.387 47.478-55.522c40.147-42.27 96.593-91.122 166.652-121 32.263-13.739 57.716-22.034 77-28.087 35.737-11.222 68.288-9.516 92.739-5.913 18.302 2.696 38.432 11.483 58.348 24.087s39.436 28.276 48.043 52.087c6.166 17.071 9.301 32.846 10.435 45.826 0.566 6.49 0.639 12.218 0.217 17.522s0.029 9.365-4.913 17.478c-10.364 17.016-22.101 17.461-34.348 23.522-6.804 3.367-26.177 12.828-45.609 22.087-19.409 9.249-36.215 17.44-46.565 21.13-6.539 2.352-14.524 5.739-26.043 4.435s-22.898-9.616-29.522-19.435c-6.278-9.307-31.554-39.142-39.261-47.913-0.102 0.062 0.566-0.246-2.478 1.261-9.53 4.716-21.187 8.727-38.435 17.826s-38.825 22.535-62.435 43.348v0.043c-35.141 30.937-59.757 69.779-67.522 82.826 0.523 0.623-0.062-0.132 1.043 0.957l0.043 0.043c7.936 7.817 14.97 17.153 20.913 24 8.426 9.708 12.146 18.265 16.174 26.261 8.029 15.935 3.559 33.47-1.087 42.696v0.043c0.321-0.638-2.513 5.614-5.565 12.826-3.061 7.233-6.963 16.61-11.13 26.609-8.335 19.998-17.64 42.428-23.174 55.565v0.043c-6.52 15.474-15.339 26.622-26.87 32s-21.718 3.849-22.13 3.87h-0.043c-8.228 0.379-17.259 0.478-26.217 0.478zM325.957 670.608c8.583 0 17.043-0.104 24.13-0.435 7.29-0.363 6.837-0.393 5.435 0.261-1.425 0.664 0.509 0.88 4.652-8.957 5.418-12.863 14.77-35.375 23.13-55.435 4.18-10.030 8.092-19.443 11.217-26.826s4.817-11.505 6.783-15.435v-0.043l0.043-0.043c1.926-3.801 1.757-1.367 1.087-2.696-4.698-9.324-5.335-11.613-10.087-17.087-7.235-8.335-14.615-17.63-18.522-21.478-3.417-3.358-9.585-8.588-13.435-18.826-3.857-10.254-2.057-24.323 4.13-34.826 8.237-13.984 35.382-58.165 77.565-95.304 26.566-23.418 51.315-38.918 71.087-49.348s35.875-16.521 39.478-18.304c8.557-4.235 17.909-7.523 28.783-6.217s20.249 7.903 26.217 14.652l0.043 0.043c7.942 9.004 31.545 35.954 42.87 52.565 0.48-0.17 0.323-0.038 4.087-1.391v-0.043h0.043c1.718-0.612 23.243-10.247 42.435-19.391s38.671-18.65 45-21.783c9.135-4.521 13.45-7.464 14.565-7.478 0.075-1.959 0.151-4.082-0.13-7.304-0.78-8.941-3.171-21.316-7.957-34.565-2.345-6.486-14.557-19.863-29.957-29.609s-34.146-16.629-41.087-17.652c-20.872-3.075-45.653-4.198-72.87 4.348-18.871 5.924-42.401 13.591-72.87 26.565-61.792 26.352-114.31 71.196-151.826 110.696-18.758 19.75-33.787 38.135-44.478 52.043-10.672 13.883-15.332 21.107-19.217 26.217l-0.043 0.043c-6.897 9.121-49.13 67.866-49.13 120.783 0 56.003 26.012 77.964 40.087 93.13 7.389 7.962 15.467 9.13 18.739 9.13z" />
<glyph unicode="&#xe93d;" glyph-name="bus" d="M821 844.8h-9.7v28.3c0 48-38.9 86.9-86.9 86.9h-425c-48 0-86.9-38.9-86.9-86.9v-28.3h-9.7c-48 0-86.9-38.9-86.9-86.9v-622.8c0-30.1 15.3-56.7 38.6-72.3v-37.9c0-49.1 39.8-88.9 88.9-88.9s88.9 39.8 88.9 88.9v23.2h363.2v-23.2c0-49.1 39.8-88.9 88.9-88.9s88.9 39.8 88.9 88.9v40.6c21.1 15.9 34.8 41.1 34.8 69.6v622.7c-0.1 48-39 87-87.1 87zM270.4 873.1c0 16 13 29 29 29h425.1c16 0 29-13 29-29v-28.3h-483v28.3zM274.3 24.9c0-17.1-13.8-30.9-30.9-30.9s-30.9 13.8-30.9 30.9v23.2h61.8v-23.2zM579.5 106.1h-135.2v52.8c0 16 13 29 29 29h77.3c16 0 29-13 29-29v-52.8zM784.3-6c-17.1 0-30.9 13.8-30.9 30.9v23.2h61.8v-23.2c0-17.1-13.8-30.9-30.9-30.9zM850 135c0-16-13-29-29-29h-183.7v52.9c0 48-38.9 86.9-86.9 86.9h-77.3c-48 0-86.9-38.9-86.9-86.9v-52.8h-183.4c-16 0-29 13-29 29v284.8c19.3-12.7 42.3-20.1 66.9-20.1h542.4c24.6 0 47.6 7.4 66.9 20.1v-284.9zM850 522.2c-3.4-35.2-32-62.8-66.9-62.8h-542.4c-34.9 0-63.6 27.5-66.9 62.8v235.6c0 16 13 29 29 29h618.3c16 0 29-13 29-29v-235.6zM270.4 264.5c-32 0-58-25.9-58-58s26-58 58-58c32 0 58 25.9 58 58s-26 58-58 58zM270.4 180.9c-14.2 0-25.7 11.5-25.7 25.7s11.5 25.7 25.7 25.7 25.7-11.5 25.7-25.7-11.5-25.7-25.7-25.7zM695.4 206.5c0-32 26-58 58-58s58 25.9 58 58-25.9 58-58 58c-32 0-58-26-58-58zM779.1 206.5c0-14.2-11.5-25.7-25.7-25.7s-25.7 11.5-25.7 25.7 11.5 25.7 25.7 25.7 25.7-11.5 25.7-25.7z" />
<glyph unicode="&#xe93e;" glyph-name="document" d="M638.7 851.3l186.2-195.2h-186.2v195.2zM927.6 631.2c0.1 13.9-17.2 28.8-20.2 31.9l-275.7 285.5c-5.8 7.2-14.6 11.4-23.8 11.4h-456c-30.7 0-55.6-24.9-55.6-55.6v0-912.9c0-14.7 5.9-28.9 16.2-39.3 10.5-10.3 24.6-16.1 39.3-16.2h720.2c30.7 0 55.6 24.9 55.6 55.6v0 639.6zM865.6 594.1v-596h-707v900h418.1v-272.9c0.1-17.2 14.1-31.1 31.3-31.1h257.6zM286.7 452.6h441.3c13.4 0 25.2-9.9 26.5-24s-13-26.5-24-26.5c-0.6 0-1.8 0-2.5 0h-441.3c-13.6-0.6-25.2 9.9-26.5 24-1.3 14.2 9.9 25.2 24 26.5 1.2 0 1.8 0 2.5 0v0zM286.7 140.1h441.3c13.4 0 25.2-9.9 26.5-24s-13-26.5-24-26.5c-0.6 0-1.8 0-2.5 0h-441.3c-13.6-0.6-25.2 9.9-26.5 24-1.3 14.2 9.9 25.2 24 26.5 1.2 0 1.8 0 2.5 0v0zM286.7 296.4h441.3c13.4 0 25.2-9.9 26.5-24s-13-26.5-24-26.5c-0.6 0-1.8 0-2.5 0h-441.3c-13.6-0.6-25.2 9.9-26.5 24-1.3 14.2 9.9 25.2 24 26.5 1.2 0 1.8 0 2.5 0v0z" />
<glyph unicode="&#xe93f;" glyph-name="train" d="M804.6 603v128c0 45.4-36.8 82.3-82.3 82.3h-91.4c-45.4 0-82.3-36.8-82.3-82.3v-128c0-45.4 36.8-82.3 82.3-82.3h91.4c45.4 0 82.3 36.8 82.3 82.3zM603.4 603v128c0 15.1 12.3 27.4 27.4 27.4h91.4c15.1 0 27.4-12.3 27.4-27.4v-128c0-15.1-12.3-27.4-27.4-27.4h-91.4c-15.1-0.1-27.4 12.2-27.4 27.4zM722.3 959.5h-420.6c-116.1 0-210.3-94.1-210.3-210.3v-548.6c0-45.4 36.8-82.3 82.3-82.3h65.3l-31.9-63.8c-27.4-54.7 12.4-119.1 73.6-119.1h462.5c61.2 0 101 64.4 73.6 119.1l-31.8 63.9h65.3c45.4 0 82.3 36.8 82.3 82.3v548.5c0 116.2-94.2 210.3-210.3 210.3zM743.2-9.6h-462.4c-20.4 0-33.7 21.5-24.5 39.7l36.6 73.1c4.6 9.3 14.1 15.2 24.5 15.2h389.3c10.4 0 19.9-5.9 24.5-15.2l36.6-73.1c9.1-18.3-4.2-39.7-24.6-39.7zM877.7 200.7c0-15.2-12.3-27.4-27.4-27.4h-676.6c-15.1 0-27.4 12.3-27.4 27.4v548.5c0 85.8 69.6 155.4 155.4 155.4h420.6c85.8 0 155.4-69.6 155.4-155.4v-548.5zM393.1 813.2h-91.4c-45.4 0-82.3-36.8-82.3-82.3v-128c0-45.4 36.8-82.3 82.3-82.3h91.4c45.4 0 82.3 36.8 82.3 82.3v128.1c0 45.4-36.8 82.2-82.3 82.2zM420.6 603c0-15.1-12.3-27.4-27.4-27.4h-91.4c-15.1 0-27.4 12.3-27.4 27.4v128c0 15.1 12.3 27.4 27.4 27.4h91.4c15.1 0 27.4-12.3 27.4-27.4v-128zM274.3 383.3c-45.3 0-82-36.7-82-82s36.7-82 82-82 82 36.7 82 82c0 45.2-36.7 82-82 82zM274.3 266.1c-19.4 0-35.1 15.7-35.1 35.1s15.7 35.1 35.1 35.1c19.4 0 35.1-15.7 35.1-35.1s-15.7-35.1-35.1-35.1zM749.7 383.3c-45.3 0-82-36.7-82-82s36.7-82 82-82c45.3 0 82 36.7 82 82 0 45.2-36.7 82-82 82zM749.7 266.1c-19.4 0-35.1 15.7-35.1 35.1s15.7 35.1 35.1 35.1c19.4 0 35.1-15.7 35.1-35.1s-15.7-35.1-35.1-35.1z" />
<glyph unicode="&#xe940;" horiz-adv-x="974" d="M119.412 664.479c0 23.035-18.674 41.708-41.709 41.708s-41.708-18.675-41.708-41.708l0.002-365.338c0-23.035 18.674-41.708 41.709-41.708s41.708 18.675 41.708 41.71l-0.003 365.337zM753.645 547.389c0 23.035-18.673 41.708-41.708 41.708s-41.708-18.673-41.71-41.708l-0.003-310.307c0-23.035 18.673-41.708 41.708-41.708s41.71 18.673 41.71 41.708l0.003 310.307z" />
<glyph unicode="&#xe941;" glyph-name="mobile-alert" d="M518 98.6c-13.3 0-24.1-10.8-24.1-24.1s10.8-24.1 24.1-24.1c13.3 0 24.1 10.8 24.1 24.1s-10.8 24.1-24.1 24.1zM656.6 960c79.8 0 144.6-64.7 144.6-144.6v0-734.9c0-79.8-64.7-144.6-144.6-144.6v0h-289.2c-79.8 0-144.6 64.7-144.6 144.6v0 734.9c0.1 79.9 64.8 144.6 144.6 144.6v0h289.2zM656.6 911.8h-289.2c-53.2 0-96.4-43.1-96.4-96.4v0-734.9c0-53.2 43.1-96.4 96.4-96.4v0h289.1c53.2 0 96.4 43.1 96.4 96.4v0 734.9c0 53.3-43.1 96.4-96.3 96.4v0 0zM518 134.8c33.3 0 60.2-27 60.2-60.2s-27-60.2-60.2-60.2c-33.3 0-60.2 27-60.2 60.2s27 60.2 60.2 60.2zM548.1 887.7c13.3 0 24.1-10.8 24.1-24.1 0-12.7-9.8-23.1-22.3-24l-1.8-0.1h-72.3c-13.3 0-24.1 10.8-24.1 24.1 0 12.7 9.8 23.1 22.3 24l1.8 0.1h72.3zM500.4 592.8c0 5.3 0.9 10.6 3 15.5 2 4.8 5 9.3 8.8 12.9 3.7 3.7 8.1 6.7 12.9 8.8 9.6 3.9 20.4 3.9 30 0 4.7-2.1 9.1-5 12.7-8.8 3.8-3.7 6.7-8.1 8.7-12.9 1.9-4.9 2.9-10.2 2.9-15.5 0-5.2-0.9-10.4-2.9-15.2s-4.9-9.3-8.6-13c-3.6-3.8-7.9-6.8-12.7-8.9-4.7-2-9.8-3-15-2.9-5.3 0-10.4 0.9-15.3 2.9-4.8 2-9.2 5-12.8 8.8-3.7 3.7-6.7 8.1-8.7 13-2 4.8-3 10.1-3 15.3zM515.6 358.3l-0.9-3.1-0.6-2.4-0.2-1.7v-1.3c0-1 0.1-2.1 0.4-3.1v0c0.2-0.8 0.6-1.4 1.1-2 0.5-0.5 1-0.9 1.7-1.1 0.9-0.3 1.8-0.5 2.7-0.4 2.7 0.3 5.1 1.4 7.2 3.1 3.8 3 7.4 6.4 10.5 10.1 4.5 5.1 8.7 10.5 12.6 16.2 4.4 6.2 8.9 13.3 13.7 21.3 0.5 0.9 1.6 1.1 2.5 0.6l16.1-12c0.8-0.6 1-1.7 0.4-2.5-6.6-11.8-14.2-23-22.5-33.7-6.8-8.8-14.6-16.9-23.2-24v0c-7.3-6-15.4-10.8-24.2-14.3-8.1-3.2-16.8-4.9-25.4-4.9-6.7-0.1-13.5 0.8-20 2.7-5.5 1.6-10.4 4.4-14.7 8.2-4 3.7-7.2 8.3-9.1 13.3-2.1 5.7-3.1 11.7-3 17.8 0 2.2 0 4.5 0.4 7s0.7 4.9 1.2 7.7v0c0.5 2.7 1.2 5.7 2.1 8.9 0.9 3.3 2 7 3.3 11.1l28 87.5 2.3 8.2c0.6 2.3 1.1 4.3 1.5 6.1 0.3 1.5 0.6 2.9 0.8 4.4 0.2 1.2 0.3 2.5 0.3 3.8 0 1.9-0.3 3.7-1 5.4v0c-0.7 1.5-1.6 2.8-2.8 4-1.3 1.2-2.9 2.1-4.6 2.7-2 0.6-4.1 0.9-6.3 0.9h-22.8c-1 0-1.8 0.8-1.8 1.8v0.4l6 21.7c0.2 0.8 0.9 1.3 1.8 1.3l116.1 3.7c1 0 1.8-0.8 1.9-1.8v-0.6l-51.5-171zM91.6 573.6c15 16.7-9.9 39.7-25.3 23.2l-0.2-0.2c-87.5-94.7-87.9-201.3-1.7-297.2l0.3-0.3c15.9-16.4 40.2 7.2 25.2 23.3-75.2 83.9-73.3 169.3 0.2 249.9 0.6 0.4 1.1 0.8 1.5 1.3v0 0zM932.4 573.6c-15 16.7 9.9 39.7 25.3 23.2l0.2-0.2c87.6-94.7 88-201.3 1.7-297.1l-0.3-0.3c-15.9-16.4-40.2 7.2-25.2 23.3 75.2 83.9 73.3 169.3-0.3 249.9-0.6 0.3-1 0.7-1.4 1.2v0 0zM858.8 514.9c-13.8 17.7 12.4 38.5 26.4 21.7l0.2-0.3c47.5-55.7 49.6-121.9 4.5-179.8-13.7-18-40.9 3-27.2 20.9l0.1 0.2c27.8 35.8 36.2 77.4 8.7 117-3.9 5.6-8.3 12-12.7 20.3v0 0zM165.1 514.9c13.8 17.7-12.4 38.5-26.4 21.7l-0.2-0.3c-47.5-55.7-49.6-121.9-4.5-179.8 13.7-18 40.9 3 27.2 20.9l-0.1 0.2c-27.8 35.8-36.2 77.4-8.7 117 3.9 5.6 8.3 12 12.7 20.3v0 0z" />
<glyph unicode="&#xe942;" glyph-name="voucher" d="M310.196 754.809c1.817 0 3.59-0.191 5.3-0.553l602.492-0.033c58.744 0 106.012-49.012 106.012-109.011v0-394.911c0-60.065-47.294-109.111-106.108-109.111v0h-808.733c-58.456 0-105.591 48.491-106.069 108.19v0l-0.449 57.519c-0.093 11.996 8.199 22.429 19.906 25.047 53.733 12.011 92.602 59.947 92.602 115.761 0 56.489-39.804 104.835-94.399 116.148-11.744 2.434-20.197 12.732-20.295 24.725v0l-0.451 55.097c-0.494 60.704 47.175 110.545 106.618 110.545v0l198.273 0.033c1.71 0.362 3.483 0.553 5.3 0.553zM284.727 703.309l-178.105-0.008c-30.732 0-55.962-26.38-55.695-59.206v0l0.264-35.887 1.941-0.637c64.168-22.678 109.6-82.45 112.763-152.087v0l0.176-7.776c0-72.062-45.305-134.909-110.726-159.063v0l-1.642-0.538 0.308-38.324c0.244-30.442 22.533-54.963 50.446-57.46v0l4.701-0.209 175.568 0.032 0.007 61.922c0 12.89 9.579 23.543 22.006 25.229l3.455 0.232c14.062 0 25.461-11.399 25.461-25.461v0l-0.007-61.922 582.242-0.032c28.675 0 52.548 23.192 54.981 53.138l0.204 5.051v394.911c0 32.28-24.891 58.088-55.089 58.088v0l-582.338 0.008 0.007-92.781c0-12.89-9.579-23.543-22.006-25.229l-3.455-0.232c-14.062 0-25.461 11.399-25.461 25.461v0l-0.007 92.781zM779.843 412.771c43.649 0 79.034-35.385 79.034-79.034s-35.385-79.034-79.034-79.034c-43.649 0-79.034 35.385-79.034 79.034s35.385 79.034 79.034 79.034zM836.714 580.668c7.764-8.855 7.664-21.907 0.263-30.624l-2.439-2.476-306.016-268.273c-9.741-8.539-24.561-7.565-33.1 2.176-7.764 8.855-7.664 21.907-0.263 30.624l2.439 2.476 306.016 268.273c9.741 8.539 24.561 7.565 33.1-2.176zM779.843 361.848c-15.525 0-28.112-12.586-28.112-28.112s12.586-28.112 28.112-28.112c15.525 0 28.112 12.586 28.112 28.112s-12.586 28.112-28.112 28.112zM310.196 517.169c14.062 0 25.461-11.399 25.461-25.461v0-118.82c0-14.062-11.399-25.461-25.461-25.461s-25.461 11.399-25.461 25.461v0 118.82c0 14.062 11.399 25.461 25.461 25.461zM564.534 631.915c43.649 0 79.034-35.385 79.034-79.034s-35.385-79.034-79.034-79.034c-43.649 0-79.034 35.385-79.034 79.034s35.385 79.034 79.034 79.034zM564.534 580.992c-15.525 0-28.112-12.586-28.112-28.112s12.586-28.112 28.112-28.112c15.525 0 28.112 12.586 28.112 28.112s-12.586 28.112-28.112 28.112z" />
<glyph unicode="&#xe943;" glyph-name="medicine-suitcase" d="M569.067 526.4v-115.733h113.6v-115.733h-113.6v-115.2h-114.133v115.733h-113.6v115.2h113.6v115.733h114.133zM512 122.133c125.867 0 227.733 103.467 227.733 230.933s-101.867 230.933-227.733 230.933-227.733-103.467-227.733-230.933 101.867-230.933 227.733-230.933zM404.267 710.4v-43.2h204.8v43.2c0 13.867-29.867 34.667-74.133 34.667h-56c-44.8 0.533-74.667-20.8-74.667-34.667zM200.533 68.267c-63.467 0-115.2 49.067-115.2 109.333v380.8c0 60.267 51.733 109.333 115.2 109.333h116.8v43.2c0 65.6 70.933 117.333 161.6 117.333h56.533c90.667 0 161.6-51.733 161.6-117.333v-43.2h126.933c63.467 0 115.2-49.067 115.2-109.333v-380.8c0-60.267-51.733-109.333-115.2-109.333h-623.467z" />
<glyph unicode="&#xe944;" glyph-name="pay" d="M911.709 810.594c61.637 0 112.29-47.328 112.29-106.634v0-511.92c0-59.292-50.659-106.634-112.29-106.634v0h-799.419c-61.632 0-112.29 47.342-112.29 106.634v0 511.92c0 59.306 50.653 106.634 112.29 106.634v0zM972.151 514.015h-920.304v-321.976c0-28.186 23.808-51.999 54.886-54.559l5.556-0.227h799.419c33.752 0 60.442 24.943 60.442 54.786v0 321.976zM810.409 473.924c38.048 0 69.567-29.473 69.567-66.733v0-120.384c0-37.244-31.526-66.733-69.567-66.733v0h-128.746c-38.042 0-69.567 29.489-69.567 66.733v0 120.384c0 37.26 31.521 66.733 69.567 66.733v0zM810.409 422.076h-128.746c-10.161 0-17.719-7.067-17.719-14.885v0-120.384c0-7.806 7.567-14.885 17.719-14.885v0h128.746c10.152 0 17.719 7.078 17.719 14.885v0 120.384c0 7.818-7.558 14.885-17.719 14.885v0zM911.709 758.745h-799.419c-33.759 0-60.442-24.932-60.442-54.786v0-86.248h920.304v86.248c0 28.196-23.801 52-54.885 54.559l-5.557 0.227z" />
<glyph unicode="&#xe945;" glyph-name="lock" d="M512 960c140.94 0 255.706-112.057 260.068-251.936l0.129-8.26v-142.353h-50.361v142.353c0 115.889-93.947 209.836-209.836 209.836-113.314 0-205.65-89.818-209.698-202.143l-0.138-7.693v-142.689h528.787c49.103 0 89.253-38.332 92.159-86.703l0.169-5.625v-436.459c0-50.991-41.337-92.328-92.328-92.328v0h-637.902c-50.991 0-92.328 41.337-92.328 92.328v0 436.459c0 50.991 41.337 92.328 92.328 92.328v0h58.754v142.689c0 143.703 116.494 260.197 260.197 260.197zM830.951 506.754h-637.902c-23.177 0-41.967-18.79-41.967-41.967v0-436.459c0-23.177 18.79-41.967 41.967-41.967v0h637.902c23.177 0 41.967 18.79 41.967 41.967v0 436.459c0 23.177-18.79 41.967-41.967 41.967v0zM512 396.146c57.165 0 103.505-46.341 103.505-103.505 0-48.467-33.311-89.153-78.289-100.412l-0.037-83.397c0-13.907-11.273-25.18-25.18-25.18-12.748 0-23.283 9.473-24.951 21.763l-0.23 3.417-0.003 83.389c-44.994 11.247-78.322 51.942-78.322 100.42 0 57.165 46.341 103.505 103.505 103.505zM512 345.786c-29.351 0-53.144-23.793-53.144-53.144s23.793-53.144 53.144-53.144c29.351 0 53.144 23.793 53.144 53.144s-23.793 53.144-53.144 53.144z" />
<glyph unicode="&#xe946;" horiz-adv-x="974" d="M289.222 820.218h98.996c0.634 0.813 1.325 1.596 2.071 2.344l130.109 130.108c9.773 9.773 25.618 9.773 35.391 0s9.773-25.618 0-35.391l-97.062-97.061h69.688c41.462 0 75.074-33.613 75.074-75.075v-24.472h8.342c41.462 0 75.074-33.612 75.074-75.074v-45.599h209.134c41.462 0 75.076-33.612 75.076-75.074v-417.085c0-24.825-12.050-46.836-30.621-60.504l0.003-34.591c0-42.385-34.36-76.744-76.744-76.744s-76.744 34.359-76.744 76.744l-0.002 20.021h-130.131l0.003-20.021c0-42.385-34.36-76.744-76.744-76.744s-76.744 34.359-76.744 76.744l-0.002 20.018h-313.65v-20.018c0-42.385-34.359-76.744-76.743-76.744s-76.744 34.359-76.744 76.744v32.659c-20.12 13.469-33.367 36.405-33.367 62.434v537.76c0 41.462 33.612 75.074 75.075 75.074h8.342v24.472c0 41.462 33.612 75.075 75.075 75.075h57.332c0.633 0.813 1.323 1.596 2.071 2.344l130.109 130.108c9.773 9.773 25.617 9.773 35.391 0s9.773-25.618 0-35.391l-97.062-97.061zM553.438 745.143c0 13.821-11.203 25.025-25.024 25.025h-367.035c-13.821 0-25.025-11.205-25.025-25.025v-24.472h417.083v24.472zM488.411 82.812h123.42c13.821 0 25.025 11.203 25.025 25.025v245.945c-16.701-11.006-36.522-17.382-57.778-17.382h-468.362c-21.257 0-41.077 6.375-57.778 17.382v-245.945c0-13.821 11.204-25.025 25.025-25.025h136.285v45.601c0 41.462 33.612 75.074 75.076 75.074h124.013c41.462 0 75.074-33.612 75.074-75.074v-45.601zM264.299 82.812h174.063v45.601c0 13.821-11.205 25.025-25.025 25.025h-124.013c-13.821 0-25.025-11.205-25.025-25.025v-45.601zM837.060 12.744c0-14.742 11.951-26.693 26.693-26.693s26.693 11.951 26.693 26.693l-0.002 20.021h-53.387l0.002-20.021zM682.636 82.815h213.403c13.821 0 25.025 11.203 25.025 25.024v188.887c-16.856-10.792-36.894-17.048-58.394-17.048h-175.765v-171.84c0-8.773-1.505-17.197-4.269-25.022zM606.828 32.761h-53.387l0.002-20.018c0-14.742 11.951-26.693 26.693-26.693s26.693 11.951 26.693 26.693l-0.002 20.018zM86.305 12.744c0-14.742 11.951-26.693 26.693-26.693s26.693 11.951 26.693 26.693v20.018h-53.387v-20.018zM921.064 511.916v13.008c0 13.821-11.205 25.025-25.025 25.025h-209.134v-220.221h175.765c32.249 0 58.391 26.142 58.391 58.391v123.456l0.003 0.34zM636.856 442.173v203.424c0 13.821-11.205 25.025-25.025 25.025h-533.868c-13.821 0-25.025-11.205-25.025-25.025v-203.424c2.897-30.426 27.659-54.194 57.778-54.194h468.362c30.119 0 54.881 23.768 57.778 54.194zM571.234 117.293c19.043 0 34.479 15.436 34.479 34.479 0 19.041-15.436 34.479-34.479 34.479-19.041 0-34.479-15.438-34.479-34.479 0-19.043 15.438-34.479 34.479-34.479zM889.33 151.772c0-19.043-15.436-34.479-34.477-34.479-19.043 0-34.479 15.436-34.479 34.479 0 19.041 15.436 34.479 34.479 34.479 19.041 0 34.477-15.438 34.477-34.479zM120.784 117.293c19.042 0 34.479 15.436 34.479 34.479 0 19.041-15.437 34.479-34.479 34.479s-34.479-15.438-34.479-34.479c0-19.043 15.437-34.479 34.479-34.479z" />
<glyph unicode="&#xe947;" glyph-name="business-lounge" d="M778.9 716.4c44.4 0 82-31.3 83.5-72.3l0.1-2.7v-176.4c15.6 10.1 34 16.2 53.8 16.8h3.1c57.8 0 104.6-46.8 104.6-104.6v-175.8c0-59.3-43.3-108.5-100-117.7v-106.8c0-13.2-10.7-23.9-23.9-23.9-12.6 0-22.9 9.7-23.8 22.1l-0.1 1.8v105.2h-478.5v-105.3c0-13.2-10.7-23.9-23.9-23.9-12.6 0-22.9 9.7-23.8 22.1l-0.1 1.8v105.9c-60 6.2-106.8 57-106.8 118.6v173.9c0 58.8 47.7 106.6 106.6 106.6 21.7 0 41.9-6.5 58.7-17.6v177.2c0 41.4 36.6 73.6 80.7 74.9l289.8 0.1zM919.4 434.1c-31.4 0-56.9-25.5-56.9-56.9v-124.2c0-13.2-10.7-23.9-23.9-23.9h-406.1c-13.2 0-23.9 10.7-23.9 23.9v122.3c0 0.2 0 0.3 0 0.5h-0.2v3.8c-2.2 30.5-27.6 54.6-58.7 54.6-32.5 0-58.8-26.3-58.8-58.8v-173.8c0-39.5 32-71.6 71.6-71.6h542.2c39.5 0 71.6 32 71.6 71.6v175.6c0 31.5-25.5 56.9-56.9 56.9v0zM778.9 668.7h-286.8c-19.8 0-34.7-12.1-35.8-25.6l-0.1-1.6v-260.2c0.1-2 0.2-4 0.2-6v-98.4h358.4v364.6c0 13.6-14.1 26.2-33.5 27.2h-2.4zM190.8 943c105.4 0 190.8-85.4 190.8-190.8s-85.4-190.8-190.8-190.8c-105.4 0-190.8 85.4-190.8 190.8s85.4 190.8 190.8 190.8zM190.8 895.3c-79 0-143.1-64.1-143.1-143.1s64.1-143.1 143.1-143.1c79 0 143.1 64.1 143.1 143.1 0.1 79-64 143.1-143.1 143.1zM175.3 881.8c12.6 0 22.9-9.7 23.8-22.1l0.1-1.8v-105.9l50.8 41c9.8 7.7 23.9 6.5 32.2-2.5l1.3-1.5c7.7-9.8 6.5-23.9-2.5-32.2l-1.5-1.3-89.4-71.4c-15.2-11.9-37.2-1.8-38.6 17l-0.1 1.8v155.1c0.1 13.1 10.8 23.8 23.9 23.8v0z" />
<glyph unicode="&#xe948;" glyph-name="logout1" d="M512.9 960c13.642 0 24.917-10.138 26.701-23.29l0.246-3.657v-193.68c0-14.883-12.065-26.947-26.947-26.947-13.642 0-24.917 10.138-26.701 23.29l-0.246 3.657-0.035 166.746h-372.843v-916.21h372.843l-0.211 156.079c0 13.642 10.138 24.917 23.29 26.701l3.657 0.246c13.642 0 24.917-10.138 26.701-23.29l0.246-3.657 0.246-183.041c0-13.642-10.138-24.917-23.29-26.701l-3.657-0.246h-426.768c-13.642 0-24.917 10.138-26.701 23.29l-0.246 3.657v970.104c0 13.642 10.138 24.917 23.29 26.701l3.657 0.246h426.768zM744.543 674.787l2.982-2.655 209.688-216.236 2.12-2.507 1.206-1.677c0.385-0.598 0.76-1.236 1.11-1.891 0.273-0.51 0.516-1.004 0.743-1.502 0.324-0.71 0.624-1.45 0.892-2.206 0.157-0.45 0.301-0.896 0.432-1.343 0.216-0.723 0.401-1.465 0.555-2.22l0.282-1.653 0.016-0.103 0.246-3.657-0.246-3.657c-0.092-0.653-0.193-1.234-0.312-1.812-0.152-0.748-0.337-1.488-0.552-2.213-0.12-0.394-0.24-0.768-0.368-1.141-0.28-0.814-0.603-1.618-0.962-2.402-0.202-0.442-0.421-0.887-0.652-1.327-0.419-0.793-0.874-1.558-1.363-2.3-0.135-0.205-0.269-0.404-0.408-0.601l-0.232-0.323c-0.89-1.232-1.883-2.385-2.965-3.448l-209.228-215.772c-10.36-10.685-27.421-10.946-38.105-0.586-9.712 9.419-10.813 24.374-3.148 35.043l2.562 3.062 165.377 170.518-581.482 0.010c-14.883 0-26.947 12.065-26.947 26.947 0 13.642 10.138 24.917 23.29 26.701l3.657 0.246 581.482-0.010-165.377 170.538c-10.36 10.685-10.099 27.745 0.586 38.105 9.712 9.419 24.695 10.058 35.122 2.069z" />
<glyph unicode="&#xe949;" glyph-name="external" d="M397.768 940.679c16.006 0 28.981-12.975 28.981-28.981 0-14.672-10.903-26.798-25.048-28.717l-3.933-0.264h-291.504c-25.010 0-45.579-19.007-48.052-43.363l-0.25-4.939v-772.83c0-25.010 19.007-45.579 43.363-48.052l4.939-0.25h811.472c25.010 0 45.579 19.007 48.052 43.363l0.25 4.939v230.557c0 16.006 12.975 28.981 28.981 28.981 14.672 0 26.798-10.903 28.717-25.048l0.264-3.933v-230.557c0-56.514-44.118-102.725-99.79-106.070l-6.474-0.194h-811.472c-56.514 0-102.725 44.118-106.070 99.79l-0.194 6.474v772.83c0 56.514 44.118 102.725 99.79 106.070l6.474 0.194h291.504zM659.72 931.222l324.859-5.009c0.557-0.027 1.113-0.070 1.669-0.128l-2.623 0.158c1.686-0.025 3.336-0.196 4.94-0.496 0.67-0.128 1.34-0.278 2.006-0.453 0.592-0.155 1.157-0.322 1.715-0.507 0.797-0.263 1.613-0.572 2.416-0.92 0.44-0.192 0.862-0.388 1.279-0.593 0.613-0.299 1.224-0.628 1.823-0.978 0.715-0.421 1.412-0.871 2.087-1.348 0.373-0.261 0.737-0.531 1.095-0.811 0.741-0.581 1.456-1.195 2.14-1.844 0.178-0.169 0.363-0.349 0.547-0.534l0.534-0.547c0.53-0.558 1.037-1.138 1.522-1.736l-2.055 2.285c1.185-1.185 2.245-2.445 3.181-3.768 0.494-0.703 0.956-1.421 1.386-2.159 0.261-0.443 0.505-0.888 0.734-1.337 0.296-0.58 0.58-1.181 0.842-1.793 0.32-0.744 0.601-1.485 0.851-2.234 0.169-0.501 0.327-1.023 0.471-1.552 0.19-0.702 0.347-1.378 0.479-2.058 0.033-0.157 0.069-0.354 0.104-0.552l0.205-1.371c0.114-0.898 0.186-1.8 0.216-2.704l0.013-0.524 4.979-323.904c0.246-16.004-12.528-29.177-28.532-29.423-14.549-0.223-26.758 10.314-29.043 24.255l-0.38 4.277-3.923 255.51-442.197-442.264c-11.318-11.318-29.668-11.318-40.985 0-10.375 10.375-11.239 26.658-2.594 38.017l2.594 2.968 442.183 442.2-255.429 3.918c-16.004 0.246-28.778 13.419-28.532 29.423 0.223 14.549 11.131 26.43 25.136 28.284l4.287 0.249z" />
<glyph unicode="&#xe94a;" glyph-name="computer-booking" d="M850.328 818.977c71.899 0 131.013-56.943 134.531-128.012l0.166-6.702v-369.62c0-31.199-10.723-59.993-28.669-82.881 37.932-3.42 67.644-35.308 67.644-74.136v-6.13c0-41.132-33.344-74.476-74.476-74.476h-875.048c-41.132 0-74.476 33.344-74.476 74.476v6.13c0 38.825 29.708 70.71 67.631 74.165-16.302 20.78-26.646 46.465-28.393 74.405l-0.263 8.447v369.62c0 71.91 56.935 131.032 127.994 134.55l6.701 0.166h676.656zM160.080 180.63l-85.605 0.007c-11.554 0-21.119-8.514-22.762-19.612l-0.25-3.4v-6.13c0-11.554 8.514-21.119 19.612-22.762l3.4-0.25h875.048c11.554 0 21.119 8.514 22.762 19.612l0.25 3.4v6.13c0 11.554-8.514 21.119-19.612 22.762l-3.4 0.25-85.606-0.007-6.752-0.511-6.838-0.172h-676.656c-4.586 0-9.12 0.232-13.592 0.684zM850.328 767.514h-676.656c-43.893 0-80.218-34.573-83.054-77.803l-0.178-5.447v-369.62c0-42.176 31.923-77.368 72.764-82.569h697.59c39.066 4.975 69.973 37.39 72.586 77.11l0.18 5.46v369.62c0 45.737-37.51 83.251-83.232 83.251zM718.035 414.657c14.211 0 25.732-11.521 25.732-25.732 0-13.027-9.68-23.793-22.24-25.497l-3.491-0.235h-188.057c-14.211 0-25.732 11.521-25.732 25.732 0 13.027 9.68 23.793 22.24 25.497l3.491 0.235h188.057zM411.215 650.358c7.46 0 14.078-6.617 14.078-14.078 0-18.229-6.617-35.616-19.873-48.871v0l-44.741-44.72 23.203-119.301c1.665-6.596-0.843-14.057-5.795-19.030v0l-23.203-23.203c-2.487-1.665-5.795-0.822-6.617 1.665v0l-38.102 111.819-64.614-54.667 9.947-44.72c0.822-4.974-0.843-10.79-4.152-14.099v0l-6.617-6.617c-1.665-1.665-4.152-0.822-5.795 0.822v0l-28.176 38.102c-6.617-3.309-15.722-2.487-21.538 3.33-5.795 5.774-6.617 14.057-3.309 21.517v0l-36.438 28.155c-2.487 1.665-2.487 4.152-0.843 5.816v0l6.638 6.617c3.309 4.152 9.104 5.795 14.078 4.152v0l44.72-10.769 54.688 64.592-110.997 36.459c-2.487 0.822-3.33 4.974-1.665 6.617v0l23.203 23.203c4.953 4.974 12.413 7.46 19.051 5.795v0l119.28-23.182 44.72 44.72c12.413 13.256 30.642 20.716 48.871 19.873zM830.070 545.406c14.211 0 25.732-11.521 25.732-25.732 0-13.027-9.68-23.793-22.24-25.497l-3.491-0.235h-300.976c-14.211 0-25.732 11.521-25.732 25.732 0 13.027 9.68 23.793 22.24 25.497l3.491 0.235h300.976zM830.070 676.155c14.211 0 25.732-11.521 25.732-25.732 0-13.027-9.68-23.793-22.24-25.497l-3.491-0.235h-300.976c-14.211 0-25.732 11.521-25.732 25.732 0 13.027 9.68 23.793 22.24 25.497l3.491 0.235h300.976z" />
<glyph unicode="&#xe94b;" glyph-name="social-line" d="M512 941.26c-282.634 0-511.937-188.123-511.937-420.014 0-207.363 182.047-381.534 428.79-413.938 16.652-3.488 39.38-11.364 45.456-25.316s3.488-33.192 1.8-47.143c0 0-6.076-36.679-6.976-44.555-2.588-13.164-10.464-51.644 44.555-28.016 55.244 23.628 294.898 175.071 402.574 300.187 72.796 82.923 108.576 166.070 107.788 258.782v0c-0.113 230.991-229.415 420.014-512.050 420.014zM330.853 398.719c0-6.076-4.388-10.464-9.564-10.464h-143.568c-2.588 0-5.288 0.9-6.976 2.588-1.8 1.8-2.588 4.388-2.588 6.976v225.815c0 5.288 4.388 9.564 9.564 9.564h35.779c5.288 0 9.564-4.388 9.564-9.564v-179.459h97.999c5.288 0.9 9.564-3.488 9.564-8.776l0.225-36.679zM417.488 623.634v-225.703c0-6.076-4.388-10.464-9.564-10.464h-35.779c-5.288 0-9.564 5.288-9.564 10.464v225.703c0 5.288 4.388 9.564 9.564 9.564h35.779c5.176 0.113 10.464-4.276 9.564-9.564zM664.231 399.619c0-6.076-4.388-10.464-9.564-10.464h-35.779c-0.9 0-1.8 0-2.588 0h-2.588c-0.9 0.9-1.8 1.8-2.588 2.588l-102.387 139.967v-133.891c-0.9-6.076-5.288-10.464-10.464-10.464h-35.779c-5.288 0.9-9.564 5.288-9.564 10.464v225.815c0 5.288 4.388 8.776 9.564 8.776h41.068v-0.9h0.9l2.7-2.7 103.288-138.167v133.891c0 5.288 4.388 9.564 9.564 9.564h35.779l-0.9-0.9c5.288 0 9.564-4.388 9.564-9.564v-224.015zM863.718 493.343c0-5.288-5.288-9.564-10.464-9.564h-97.099v-38.48h97.099c5.288 0 9.564-4.388 9.564-9.564v-36.679c0-6.076-4.388-10.464-9.564-10.464h-143.455c-2.588 0-5.288 0.9-6.976 2.588-1.8 1.8-2.588 4.388-2.588 6.976v225.477c0 2.588 0.9 5.288 2.588 6.976 1.8 1.8 4.388 2.588 6.976 2.588h143.455c5.288 0 9.564-4.388 9.564-9.564v-35.779c0-6.076-4.388-10.464-9.564-10.464v0.9h-96.312v-37.58h97.099c5.288 0 9.564-5.288 9.564-10.464v-36.904z" />
</font>
</defs>
</svg>
